<?xml version="1.0" encoding="UTF-8"?>
<!DOCTYPE svg PUBLIC "-//W3C//DTD SVG 1.1//EN" "http://www.w3.org/Graphics/SVG/1.1/DTD/svg11.dtd">
<svg xmlns="http://www.w3.org/2000/svg" version="1.1" width="500px" height="500px" style="shape-rendering:geometricPrecision; text-rendering:geometricPrecision; image-rendering:optimizeQuality; fill-rule:evenodd; clip-rule:evenodd" xmlns:xlink="http://www.w3.org/1999/xlink">
<g><path style="opacity:1" fill="#fefefe" d="M -0.5,-0.5 C 166.167,-0.5 332.833,-0.5 499.5,-0.5C 499.5,166.167 499.5,332.833 499.5,499.5C 332.833,499.5 166.167,499.5 -0.5,499.5C -0.5,332.833 -0.5,166.167 -0.5,-0.5 Z"/></g>
<g><path style="opacity:1" fill="#faf6f6" d="M 240.5,91.5 C 297.727,90.3674 343.56,112.367 378,157.5C 416.506,217.408 417.173,277.741 380,338.5C 340.711,391.21 288.211,413.377 222.5,405C 154.856,390.356 112.356,349.523 95,282.5C 83.8701,217.534 103.703,164.367 154.5,123C 180.354,104.661 209.021,94.1614 240.5,91.5 Z"/></g>
<g><path style="opacity:1" fill="#6624eb" d="M 329.5,364.5 C 333.727,362.215 337.393,359.215 340.5,355.5C 344.105,353.528 347.105,350.861 349.5,347.5C 353.18,343.817 356.514,339.817 359.5,335.5C 364.479,330.225 368.479,324.225 371.5,317.5C 374.949,312.265 377.616,306.598 379.5,300.5C 382.586,293.853 384.919,286.853 386.5,279.5C 387.338,279.158 387.672,278.492 387.5,277.5C 399.008,222.868 384.675,176.368 344.5,138C 303.406,105.205 257.739,96.8717 207.5,113C 193.422,117.964 180.756,125.131 169.5,134.5C 167.251,135.08 165.585,136.413 164.5,138.5C 161.911,139.419 159.911,141.086 158.5,143.5C 153.188,146.812 148.855,151.145 145.5,156.5C 141.487,160.515 137.821,164.848 134.5,169.5C 130.647,175.205 127.314,181.205 124.5,187.5C 120.429,194.321 117.429,201.654 115.5,209.5C 111.617,219.712 109.284,230.378 108.5,241.5C 106.742,265.28 110.075,288.28 118.5,310.5C 115.968,314.521 113.802,314.188 112,309.5C 90.4495,242.229 105.283,184.396 156.5,136C 210.042,92.7472 267.375,87.0806 328.5,119C 379.938,153.727 402.438,202.227 396,264.5C 382.852,334.313 342.019,378.48 273.5,397C 228.402,405.584 188.068,395.584 152.5,367C 146.281,361.283 140.614,355.117 135.5,348.5C 136.427,346.054 138.094,345.221 140.5,346C 179.462,388.87 227.129,402.87 283.5,388C 300.729,383.554 316.062,375.72 329.5,364.5 Z"/></g>
<g><path style="opacity:1" fill="#f2eef5" d="M 387.5,277.5 C 386.556,274.332 386.556,270.999 387.5,267.5C 388.114,263.865 388.448,260.198 388.5,256.5C 388.826,248.316 388.492,240.316 387.5,232.5C 387.369,228.048 386.702,223.714 385.5,219.5C 383.871,209.947 380.871,200.947 376.5,192.5C 375.59,189.008 373.924,186.008 371.5,183.5C 369.251,177.995 366.251,172.995 362.5,168.5C 360.207,164.242 357.207,160.576 353.5,157.5C 349.833,151.833 345.167,147.167 339.5,143.5C 308.924,117.924 273.591,107.091 233.5,111C 216.519,112.717 200.519,117.55 185.5,125.5C 180.334,128.248 175.334,131.248 170.5,134.5C 170.167,134.5 169.833,134.5 169.5,134.5C 180.756,125.131 193.422,117.964 207.5,113C 257.739,96.8717 303.406,105.205 344.5,138C 384.675,176.368 399.008,222.868 387.5,277.5 Z"/></g>
<g><path style="opacity:1" fill="#0954b0" d="M 339.5,143.5 C 337.97,145.877 336.47,145.877 335,143.5C 331.256,144.01 327.256,144.01 323,143.5C 322.333,142.833 321.667,142.167 321,141.5C 317.333,141.833 313.667,142.167 310,142.5C 308.295,141.237 306.628,140.903 305,141.5C 304.333,140.833 303.667,140.167 303,139.5C 299.333,139.833 295.667,140.167 292,140.5C 290.333,139.5 288.667,138.5 287,137.5C 284,137.833 281,138.167 278,138.5C 276.295,137.237 274.628,136.903 273,137.5C 272.333,136.833 271.667,136.167 271,135.5C 267.333,135.833 263.667,136.167 260,136.5C 258.295,135.237 256.628,134.903 255,135.5C 254.333,134.833 253.667,134.167 253,133.5C 249.333,133.833 245.667,134.167 242,134.5C 240.295,133.237 238.628,132.903 237,133.5C 236.333,132.833 235.667,132.167 235,131.5C 231.614,132.364 227.948,132.697 224,132.5C 222.559,131.13 220.892,130.13 219,129.5C 216,129.833 213,130.167 210,130.5C 208.295,129.237 206.628,128.903 205,129.5C 204.333,128.833 203.667,128.167 203,127.5C 199.333,127.833 195.667,128.167 192,128.5C 190.445,126.854 188.779,126.521 187,127.5C 186.283,126.956 185.783,126.289 185.5,125.5C 200.519,117.55 216.519,112.717 233.5,111C 273.591,107.091 308.924,117.924 339.5,143.5 Z"/></g>
<g><path style="opacity:1" fill="#0c5ab3" d="M 185.5,125.5 C 185.783,126.289 186.283,126.956 187,127.5C 188.779,126.521 190.445,126.854 192,128.5C 195.667,128.167 199.333,127.833 203,127.5C 203.667,128.167 204.333,128.833 205,129.5C 206.628,128.903 208.295,129.237 210,130.5C 213,130.167 216,129.833 219,129.5C 220.892,130.13 222.559,131.13 224,132.5C 227.948,132.697 231.614,132.364 235,131.5C 235.667,132.167 236.333,132.833 237,133.5C 238.628,132.903 240.295,133.237 242,134.5C 245.667,134.167 249.333,133.833 253,133.5C 253.667,134.167 254.333,134.833 255,135.5C 256.628,134.903 258.295,135.237 260,136.5C 263.667,136.167 267.333,135.833 271,135.5C 271.667,136.167 272.333,136.833 273,137.5C 274.628,136.903 276.295,137.237 278,138.5C 281,138.167 284,137.833 287,137.5C 288.667,138.5 290.333,139.5 292,140.5C 295.667,140.167 299.333,139.833 303,139.5C 303.667,140.167 304.333,140.833 305,141.5C 306.628,140.903 308.295,141.237 310,142.5C 313.667,142.167 317.333,141.833 321,141.5C 321.667,142.167 322.333,142.833 323,143.5C 327.256,144.01 331.256,144.01 335,143.5C 336.47,145.877 337.97,145.877 339.5,143.5C 345.167,147.167 349.833,151.833 353.5,157.5C 352.312,158.048 351.145,158.381 350,158.5C 348.295,157.237 346.628,156.903 345,157.5C 344.333,156.833 343.667,156.167 343,155.5C 340,155.833 337,156.167 334,156.5C 332.445,154.854 330.779,154.521 329,155.5C 327.667,154.833 326.333,154.167 325,153.5C 322.667,153.833 320.333,154.167 318,154.5C 316.295,153.237 314.628,152.903 313,153.5C 312.333,152.833 311.667,152.167 311,151.5C 307.333,151.833 303.667,152.167 300,152.5C 298.295,151.237 296.628,150.903 295,151.5C 294.333,150.833 293.667,150.167 293,149.5C 290,149.833 287,150.167 284,150.5C 283.333,149.833 282.667,149.167 282,148.5C 280.249,149.174 278.583,149.507 277,149.5C 276.333,148.833 275.667,148.167 275,147.5C 272.667,147.833 270.333,148.167 268,148.5C 265,147.5 262,146.5 259,145.5C 256,145.833 253,146.167 250,146.5C 248.295,145.237 246.628,144.903 245,145.5C 244.333,144.833 243.667,144.167 243,143.5C 239.333,143.833 235.667,144.167 232,144.5C 230.445,142.854 228.779,142.521 227,143.5C 226.333,142.833 225.667,142.167 225,141.5C 222,141.833 219,142.167 216,142.5C 214.333,141.5 212.667,140.5 211,139.5C 209.667,142.167 208.333,142.167 207,139.5C 204.667,139.833 202.333,140.167 200,140.5C 197,139.5 194,138.5 191,137.5C 188.667,137.833 186.333,138.167 184,138.5C 183.333,137.833 182.667,137.167 182,136.5C 178.408,137.325 175.075,137.325 172,136.5C 171.283,135.956 170.783,135.289 170.5,134.5C 175.334,131.248 180.334,128.248 185.5,125.5 Z"/></g>
<g><path style="opacity:1" fill="#bcc4e7" d="M 169.5,134.5 C 168.415,136.587 166.749,137.92 164.5,138.5C 165.585,136.413 167.251,135.08 169.5,134.5 Z"/></g>
<g><path style="opacity:1" fill="#1161b6" d="M 169.5,134.5 C 169.833,134.5 170.167,134.5 170.5,134.5C 170.783,135.289 171.283,135.956 172,136.5C 175.075,137.325 178.408,137.325 182,136.5C 182.667,137.167 183.333,137.833 184,138.5C 186.333,138.167 188.667,137.833 191,137.5C 194,138.5 197,139.5 200,140.5C 202.333,140.167 204.667,139.833 207,139.5C 208.333,142.167 209.667,142.167 211,139.5C 212.667,140.5 214.333,141.5 216,142.5C 219,142.167 222,141.833 225,141.5C 225.667,142.167 226.333,142.833 227,143.5C 228.779,142.521 230.445,142.854 232,144.5C 235.667,144.167 239.333,143.833 243,143.5C 243.667,144.167 244.333,144.833 245,145.5C 246.628,144.903 248.295,145.237 250,146.5C 253,146.167 256,145.833 259,145.5C 262,146.5 265,147.5 268,148.5C 270.333,148.167 272.667,147.833 275,147.5C 275.667,148.167 276.333,148.833 277,149.5C 278.583,149.507 280.249,149.174 282,148.5C 282.667,149.167 283.333,149.833 284,150.5C 287,150.167 290,149.833 293,149.5C 293.667,150.167 294.333,150.833 295,151.5C 296.628,150.903 298.295,151.237 300,152.5C 303.667,152.167 307.333,151.833 311,151.5C 311.667,152.167 312.333,152.833 313,153.5C 314.628,152.903 316.295,153.237 318,154.5C 320.333,154.167 322.667,153.833 325,153.5C 326.333,154.167 327.667,154.833 329,155.5C 330.779,154.521 332.445,154.854 334,156.5C 337,156.167 340,155.833 343,155.5C 343.667,156.167 344.333,156.833 345,157.5C 346.628,156.903 348.295,157.237 350,158.5C 351.145,158.381 352.312,158.048 353.5,157.5C 357.207,160.576 360.207,164.242 362.5,168.5C 362.631,169.239 362.464,169.906 362,170.5C 360,169.167 358,169.167 356,170.5C 354.333,169.5 352.667,168.5 351,167.5C 347.333,167.833 343.667,168.167 340,168.5C 338.295,167.237 336.628,166.903 335,167.5C 334.333,166.833 333.667,166.167 333,165.5C 329.333,165.833 325.667,166.167 322,166.5C 320.295,165.237 318.628,164.903 317,165.5C 316.333,164.833 315.667,164.167 315,163.5C 311.614,164.364 307.948,164.697 304,164.5C 301.903,163.009 299.57,162.009 297,161.5C 293.256,162.01 289.256,162.01 285,161.5C 284.333,160.833 283.667,160.167 283,159.5C 279.333,159.833 275.667,160.167 272,160.5C 270.445,158.854 268.779,158.521 267,159.5C 266.333,158.833 265.667,158.167 265,157.5C 261.333,157.833 257.667,158.167 254,158.5C 252.494,155.526 250.828,155.193 249,157.5C 248.333,156.833 247.667,156.167 247,155.5C 244.667,155.833 242.333,156.167 240,156.5C 237,155.5 234,154.5 231,153.5C 228,153.833 225,154.167 222,154.5C 220.295,153.237 218.628,152.903 217,153.5C 216.333,152.833 215.667,152.167 215,151.5C 211.333,151.833 207.667,152.167 204,152.5C 203.147,150.875 202.147,150.542 201,151.5C 199.667,150.833 198.333,150.167 197,149.5C 194,149.833 191,150.167 188,150.5C 186.333,149.5 184.667,148.5 183,147.5C 179.052,147.303 175.386,147.636 172,148.5C 170.295,147.237 168.628,146.903 167,147.5C 166.333,146.833 165.667,146.167 165,145.5C 162.667,145.833 160.333,146.167 158,146.5C 157.53,145.423 157.697,144.423 158.5,143.5C 159.911,141.086 161.911,139.419 164.5,138.5C 166.749,137.92 168.415,136.587 169.5,134.5 Z"/></g>
<g><path style="opacity:1" fill="#1366b8" d="M 158.5,143.5 C 157.697,144.423 157.53,145.423 158,146.5C 160.333,146.167 162.667,145.833 165,145.5C 165.667,146.167 166.333,146.833 167,147.5C 168.628,146.903 170.295,147.237 172,148.5C 175.386,147.636 179.052,147.303 183,147.5C 184.667,148.5 186.333,149.5 188,150.5C 191,150.167 194,149.833 197,149.5C 198.333,150.167 199.667,150.833 201,151.5C 202.147,150.542 203.147,150.875 204,152.5C 207.667,152.167 211.333,151.833 215,151.5C 215.667,152.167 216.333,152.833 217,153.5C 218.628,152.903 220.295,153.237 222,154.5C 225,154.167 228,153.833 231,153.5C 234,154.5 237,155.5 240,156.5C 242.333,156.167 244.667,155.833 247,155.5C 247.667,156.167 248.333,156.833 249,157.5C 250.828,155.193 252.494,155.526 254,158.5C 257.667,158.167 261.333,157.833 265,157.5C 265.667,158.167 266.333,158.833 267,159.5C 268.779,158.521 270.445,158.854 272,160.5C 275.667,160.167 279.333,159.833 283,159.5C 283.667,160.167 284.333,160.833 285,161.5C 289.256,162.01 293.256,162.01 297,161.5C 299.57,162.009 301.903,163.009 304,164.5C 307.948,164.697 311.614,164.364 315,163.5C 315.667,164.167 316.333,164.833 317,165.5C 318.628,164.903 320.295,165.237 322,166.5C 325.667,166.167 329.333,165.833 333,165.5C 333.667,166.167 334.333,166.833 335,167.5C 336.628,166.903 338.295,167.237 340,168.5C 343.667,168.167 347.333,167.833 351,167.5C 352.667,168.5 354.333,169.5 356,170.5C 358,169.167 360,169.167 362,170.5C 362.464,169.906 362.631,169.239 362.5,168.5C 366.251,172.995 369.251,177.995 371.5,183.5C 368.966,184.061 366.466,184.394 364,184.5C 362.295,183.237 360.628,182.903 359,183.5C 358.333,182.833 357.667,182.167 357,181.5C 353.333,181.833 349.667,182.167 346,182.5C 344.295,181.237 342.628,180.903 341,181.5C 340.333,180.833 339.667,180.167 339,179.5C 335.614,180.364 331.948,180.697 328,180.5C 326.559,179.13 324.892,178.13 323,177.5C 320,177.833 317,178.167 314,178.5C 312.295,177.237 310.628,176.903 309,177.5C 308.333,176.833 307.667,176.167 307,175.5C 304.534,175.606 302.034,175.939 299.5,176.5C 295.263,174.006 291.263,174.006 287.5,176.5C 286.685,175.571 285.852,174.571 285,173.5C 282.667,173.833 280.333,174.167 278,174.5C 276.494,171.526 274.828,171.193 273,173.5C 272.333,172.833 271.667,172.167 271,171.5C 268.667,171.833 266.333,172.167 264,172.5C 261,171.5 258,170.5 255,169.5C 252,169.833 249,170.167 246,170.5C 244.295,169.237 242.628,168.903 241,169.5C 240.333,168.833 239.667,168.167 239,167.5C 235.614,168.364 231.948,168.697 228,168.5C 227.147,166.875 226.147,166.542 225,167.5C 223.667,166.833 222.333,166.167 221,165.5C 218,165.833 215,166.167 212,166.5C 210.333,165.5 208.667,164.5 207,163.5C 203.052,163.303 199.386,163.636 196,164.5C 194.295,163.237 192.628,162.903 191,163.5C 190.333,162.833 189.667,162.167 189,161.5C 185.333,161.833 181.667,162.167 178,162.5C 176.445,160.854 174.779,160.521 173,161.5C 172.333,160.833 171.667,160.167 171,159.5C 167.614,160.364 163.948,160.697 160,160.5C 158.559,159.13 156.892,158.13 155,157.5C 152,157.833 149,158.167 146,158.5C 145.536,157.906 145.369,157.239 145.5,156.5C 148.855,151.145 153.188,146.812 158.5,143.5 Z"/></g>
<g><path style="opacity:1" fill="#176eba" d="M 145.5,156.5 C 145.369,157.239 145.536,157.906 146,158.5C 149,158.167 152,157.833 155,157.5C 156.892,158.13 158.559,159.13 160,160.5C 163.948,160.697 167.614,160.364 171,159.5C 171.667,160.167 172.333,160.833 173,161.5C 174.779,160.521 176.445,160.854 178,162.5C 181.667,162.167 185.333,161.833 189,161.5C 189.667,162.167 190.333,162.833 191,163.5C 192.628,162.903 194.295,163.237 196,164.5C 199.386,163.636 203.052,163.303 207,163.5C 208.667,164.5 210.333,165.5 212,166.5C 215,166.167 218,165.833 221,165.5C 222.333,166.167 223.667,166.833 225,167.5C 226.147,166.542 227.147,166.875 228,168.5C 231.948,168.697 235.614,168.364 239,167.5C 239.667,168.167 240.333,168.833 241,169.5C 242.628,168.903 244.295,169.237 246,170.5C 249,170.167 252,169.833 255,169.5C 258,170.5 261,171.5 264,172.5C 266.333,172.167 268.667,171.833 271,171.5C 271.667,172.167 272.333,172.833 273,173.5C 274.828,171.193 276.494,171.526 278,174.5C 280.333,174.167 282.667,173.833 285,173.5C 285.852,174.571 286.685,175.571 287.5,176.5C 288.8,181.6 288.8,186.6 287.5,191.5C 287.657,190.127 287.49,188.793 287,187.5C 286,187.833 285,188.167 284,188.5C 282.333,187.5 280.667,186.5 279,185.5C 274.667,185.833 270.333,186.167 266,186.5C 265,185.5 264,184.5 263,183.5C 259.333,183.833 255.667,184.167 252,184.5C 250.667,181.833 249.333,181.833 248,184.5C 247,183.5 246,182.5 245,181.5C 241.333,181.833 237.667,182.167 234,182.5C 232.494,179.526 230.828,179.193 229,181.5C 228.333,180.833 227.667,180.167 227,179.5C 223.333,179.833 219.667,180.167 216,180.5C 215,179.5 214,178.5 213,177.5C 208.667,177.833 204.333,178.167 200,178.5C 199.779,175.057 198.779,174.724 197,177.5C 196.333,176.833 195.667,176.167 195,175.5C 191.333,175.833 187.667,176.167 184,176.5C 182.667,173.833 181.333,173.833 180,176.5C 179,175.5 178,174.5 177,173.5C 173.333,173.833 169.667,174.167 166,174.5C 164.494,171.526 162.828,171.193 161,173.5C 160.333,172.833 159.667,172.167 159,171.5C 156.667,171.833 154.333,172.167 152,172.5C 150.667,169.833 149.333,169.833 148,172.5C 147,171.5 146,170.5 145,169.5C 141.781,170.621 138.281,170.621 134.5,169.5C 137.821,164.848 141.487,160.515 145.5,156.5 Z"/></g>
<g><path style="opacity:1" fill="#1d76be" d="M 134.5,169.5 C 138.281,170.621 141.781,170.621 145,169.5C 146,170.5 147,171.5 148,172.5C 149.333,169.833 150.667,169.833 152,172.5C 154.333,172.167 156.667,171.833 159,171.5C 159.667,172.167 160.333,172.833 161,173.5C 162.828,171.193 164.494,171.526 166,174.5C 169.667,174.167 173.333,173.833 177,173.5C 178,174.5 179,175.5 180,176.5C 181.333,173.833 182.667,173.833 184,176.5C 187.667,176.167 191.333,175.833 195,175.5C 195.667,176.167 196.333,176.833 197,177.5C 198.779,174.724 199.779,175.057 200,178.5C 204.333,178.167 208.667,177.833 213,177.5C 214,178.5 215,179.5 216,180.5C 219.667,180.167 223.333,179.833 227,179.5C 227.667,180.167 228.333,180.833 229,181.5C 230.828,179.193 232.494,179.526 234,182.5C 237.667,182.167 241.333,181.833 245,181.5C 246,182.5 247,183.5 248,184.5C 249.333,181.833 250.667,181.833 252,184.5C 255.667,184.167 259.333,183.833 263,183.5C 264,184.5 265,185.5 266,186.5C 270.333,186.167 274.667,185.833 279,185.5C 280.667,186.5 282.333,187.5 284,188.5C 285,188.167 286,187.833 287,187.5C 287.49,188.793 287.657,190.127 287.5,191.5C 287.244,200.843 286.744,210.176 286,219.5C 285.167,220.333 284.333,221.167 283.5,222C 273.427,226.372 266.594,223.538 263,213.5C 261.574,208.243 262.741,203.743 266.5,200C 270.475,198.621 273.309,199.787 275,203.5C 275.977,205.74 276.477,208.073 276.5,210.5C 286.977,208.562 288.31,203.729 280.5,196C 268.595,190.268 258.762,192.768 251,203.5C 248.141,198.568 243.807,196.235 238,196.5C 231.71,197.064 226.21,199.397 221.5,203.5C 221.657,202.127 221.49,200.793 221,199.5C 219.333,199.833 217.667,200.167 216,200.5C 214.295,199.237 212.628,198.903 211,199.5C 210.333,198.833 209.667,198.167 209,197.5C 205.333,197.833 201.667,198.167 198,198.5C 196.698,197.915 195.531,197.249 194.5,196.5C 199.436,196.689 203.602,195.023 207,191.5C 207.851,188.947 207.518,186.614 206,184.5C 193.193,186.334 180.36,188.167 167.5,190C 162.779,191.811 161.446,194.978 163.5,199.5C 162.211,200.501 160.878,200.334 159.5,199C 162.217,196.35 162.051,193.85 159,191.5C 155.333,191.833 151.667,192.167 148,192.5C 146.295,191.237 144.628,190.903 143,191.5C 142.333,190.833 141.667,190.167 141,189.5C 135.922,190.01 130.589,190.01 125,189.5C 124.536,188.906 124.369,188.239 124.5,187.5C 127.314,181.205 130.647,175.205 134.5,169.5 Z"/></g>
<g><path style="opacity:1" fill="#5c1de9" d="M 299.5,176.5 C 300.274,184.786 300.774,193.12 301,201.5C 305.263,195.235 310.763,190.402 317.5,187C 322.118,185.422 325.118,186.922 326.5,191.5C 326.272,198.87 325.605,206.203 324.5,213.5C 324.505,215.696 324.838,217.696 325.5,219.5C 325.833,221.5 326.167,223.5 326.5,225.5C 315.909,229.083 310.909,225.25 311.5,214C 312.165,208.518 312.498,203.018 312.5,197.5C 309.737,197.744 307.571,199.077 306,201.5C 299.639,209.367 297.806,218.034 300.5,227.5C 295.655,230.408 290.989,230.075 286.5,226.5C 274.844,235.023 264.01,234.023 254,223.5C 252.073,220.052 250.739,216.385 250,212.5C 244.288,218.94 237.121,222.607 228.5,223.5C 232.022,228.188 236.689,229.688 242.5,228C 245.759,226.789 248.592,224.956 251,222.5C 250.829,227.331 248.663,231.164 244.5,234C 241.691,235.093 239.024,236.26 236.5,237.5C 231.673,237.779 227.007,237.113 222.5,235.5C 218.623,232.413 216.289,228.413 215.5,223.5C 214.131,215.747 216.131,209.08 221.5,203.5C 226.21,199.397 231.71,197.064 238,196.5C 243.807,196.235 248.141,198.568 251,203.5C 258.762,192.768 268.595,190.268 280.5,196C 288.31,203.729 286.977,208.562 276.5,210.5C 276.477,208.073 275.977,205.74 275,203.5C 273.309,199.787 270.475,198.621 266.5,200C 262.741,203.743 261.574,208.243 263,213.5C 266.594,223.538 273.427,226.372 283.5,222C 284.333,221.167 285.167,220.333 286,219.5C 286.744,210.176 287.244,200.843 287.5,191.5C 288.8,186.6 288.8,181.6 287.5,176.5C 291.263,174.006 295.263,174.006 299.5,176.5 Z"/></g>
<g><path style="opacity:1" fill="#176ebb" d="M 371.5,183.5 C 373.924,186.008 375.59,189.008 376.5,192.5C 375.272,193.025 374.438,194.358 374,196.5C 373,196.167 372,195.833 371,195.5C 370.667,196.5 370.333,197.5 370,198.5C 368.667,198.5 367.333,198.5 366,198.5C 365,197.5 364,196.5 363,195.5C 359.333,195.833 355.667,196.167 352,196.5C 350.667,193.833 349.333,193.833 348,196.5C 347,195.5 346,194.5 345,193.5C 341.333,193.833 337.667,194.167 334,194.5C 332.494,191.526 330.828,191.193 329,193.5C 328.292,192.619 327.458,191.953 326.5,191.5C 325.118,186.922 322.118,185.422 317.5,187C 310.763,190.402 305.263,195.235 301,201.5C 300.774,193.12 300.274,184.786 299.5,176.5C 302.034,175.939 304.534,175.606 307,175.5C 307.667,176.167 308.333,176.833 309,177.5C 310.628,176.903 312.295,177.237 314,178.5C 317,178.167 320,177.833 323,177.5C 324.892,178.13 326.559,179.13 328,180.5C 331.948,180.697 335.614,180.364 339,179.5C 339.667,180.167 340.333,180.833 341,181.5C 342.628,180.903 344.295,181.237 346,182.5C 349.667,182.167 353.333,181.833 357,181.5C 357.667,182.167 358.333,182.833 359,183.5C 360.628,182.903 362.295,183.237 364,184.5C 366.466,184.394 368.966,184.061 371.5,183.5 Z"/></g>
<g><path style="opacity:1" fill="#5c1ce9" d="M 194.5,196.5 C 193.127,196.343 191.793,196.51 190.5,197C 191,197.5 191.5,198 192,198.5C 192.653,204.862 192.487,211.195 191.5,217.5C 190.473,223.66 190.473,229.66 191.5,235.5C 191.357,237.262 191.691,238.929 192.5,240.5C 191.376,241.859 190.042,242.859 188.5,243.5C 185.162,243.935 182.162,243.268 179.5,241.5C 178.57,234.223 178.236,226.89 178.5,219.5C 179.763,211.934 180.43,204.268 180.5,196.5C 174.856,196.578 169.523,197.911 164.5,200.5C 163.893,200.376 163.56,200.043 163.5,199.5C 161.446,194.978 162.779,191.811 167.5,190C 180.36,188.167 193.193,186.334 206,184.5C 207.518,186.614 207.851,188.947 207,191.5C 203.602,195.023 199.436,196.689 194.5,196.5 Z"/></g>
<g><path style="opacity:1" fill="#1e77be" d="M 326.5,191.5 C 327.458,191.953 328.292,192.619 329,193.5C 330.828,191.193 332.494,191.526 334,194.5C 337.667,194.167 341.333,193.833 345,193.5C 346,194.5 347,195.5 348,196.5C 349.333,193.833 350.667,193.833 352,196.5C 355.667,196.167 359.333,195.833 363,195.5C 364,196.5 365,197.5 366,198.5C 367.333,198.5 368.667,198.5 370,198.5C 370.333,197.5 370.667,196.5 371,195.5C 372,195.833 373,196.167 374,196.5C 374.438,194.358 375.272,193.025 376.5,192.5C 380.871,200.947 383.871,209.947 385.5,219.5C 384.883,219.611 384.383,219.944 384,220.5C 381,219.5 378,218.5 375,217.5C 372.667,217.833 370.333,218.167 368,218.5C 367.333,217.833 366.667,217.167 366,216.5C 364.249,217.174 362.583,217.507 361,217.5C 360.333,216.833 359.667,216.167 359,215.5C 355.333,215.833 351.667,216.167 348,216.5C 346.445,214.854 344.779,214.521 343,215.5C 342.333,214.833 341.667,214.167 341,213.5C 338,213.833 335,214.167 332,214.5C 330.333,213.5 328.667,212.5 327,211.5C 325.625,213.937 325.125,216.603 325.5,219.5C 324.838,217.696 324.505,215.696 324.5,213.5C 325.605,206.203 326.272,198.87 326.5,191.5 Z"/></g>
<g><path style="opacity:1" fill="#2380c2" d="M 194.5,196.5 C 195.531,197.249 196.698,197.915 198,198.5C 201.667,198.167 205.333,197.833 209,197.5C 209.667,198.167 210.333,198.833 211,199.5C 212.628,198.903 214.295,199.237 216,200.5C 217.667,200.167 219.333,199.833 221,199.5C 221.49,200.793 221.657,202.127 221.5,203.5C 216.131,209.08 214.131,215.747 215.5,223.5C 214.852,221.502 214.019,219.502 213,217.5C 211.333,217.833 209.667,218.167 208,218.5C 206.333,217.5 204.667,216.5 203,215.5C 199.408,216.325 196.075,216.325 193,215.5C 192.722,216.416 192.222,217.082 191.5,217.5C 192.487,211.195 192.653,204.862 192,198.5C 191.5,198 191,197.5 190.5,197C 191.793,196.51 193.127,196.343 194.5,196.5 Z"/></g>
<g><path style="opacity:1" fill="#2684c3" d="M 124.5,187.5 C 124.369,188.239 124.536,188.906 125,189.5C 130.589,190.01 135.922,190.01 141,189.5C 141.667,190.167 142.333,190.833 143,191.5C 144.628,190.903 146.295,191.237 148,192.5C 151.667,192.167 155.333,191.833 159,191.5C 162.051,193.85 162.217,196.35 159.5,199C 160.878,200.334 162.211,200.501 163.5,199.5C 163.56,200.043 163.893,200.376 164.5,200.5C 169.523,197.911 174.856,196.578 180.5,196.5C 180.43,204.268 179.763,211.934 178.5,219.5C 177.504,219.414 176.671,219.748 176,220.5C 174.559,219.13 172.892,218.13 171,217.5C 168,217.833 165,218.167 162,218.5C 160.295,217.237 158.628,216.903 157,217.5C 156.333,216.833 155.667,216.167 155,215.5C 151.333,215.833 147.667,216.167 144,216.5C 142.445,214.854 140.779,214.521 139,215.5C 138.333,214.833 137.667,214.167 137,213.5C 134,213.833 131,214.167 128,214.5C 126.333,213.5 124.667,212.5 123,211.5C 121.667,214.167 120.333,214.167 119,211.5C 117.855,211.619 116.688,211.952 115.5,212.5C 115.5,211.5 115.5,210.5 115.5,209.5C 117.429,201.654 120.429,194.321 124.5,187.5 Z"/></g>
<g><path style="opacity:1" fill="#247ec2" d="M 233.5,203.5 C 239.448,202.283 241.948,204.617 241,210.5C 237.648,214.26 233.481,216.593 228.5,217.5C 227.342,211.818 229.009,207.151 233.5,203.5 Z"/></g>
<g><path style="opacity:1" fill="#2a89c6" d="M 215.5,223.5 C 216.289,228.413 218.623,232.413 222.5,235.5C 220.165,236.605 217.665,235.938 215,233.5C 211.333,233.833 207.667,234.167 204,234.5C 202.982,232.436 201.649,232.102 200,233.5C 198.739,233.241 197.739,232.574 197,231.5C 195.667,231.5 194.333,231.5 193,231.5C 191.812,232.563 191.312,233.897 191.5,235.5C 190.473,229.66 190.473,223.66 191.5,217.5C 192.222,217.082 192.722,216.416 193,215.5C 196.075,216.325 199.408,216.325 203,215.5C 204.667,216.5 206.333,217.5 208,218.5C 209.667,218.167 211.333,217.833 213,217.5C 214.019,219.502 214.852,221.502 215.5,223.5 Z"/></g>
<g><path style="opacity:1" fill="#2382c2" d="M 325.5,219.5 C 325.125,216.603 325.625,213.937 327,211.5C 328.667,212.5 330.333,213.5 332,214.5C 335,214.167 338,213.833 341,213.5C 341.667,214.167 342.333,214.833 343,215.5C 344.779,214.521 346.445,214.854 348,216.5C 351.667,216.167 355.333,215.833 359,215.5C 359.667,216.167 360.333,216.833 361,217.5C 362.583,217.507 364.249,217.174 366,216.5C 366.667,217.167 367.333,217.833 368,218.5C 370.333,218.167 372.667,217.833 375,217.5C 378,218.5 381,219.5 384,220.5C 384.383,219.944 384.883,219.611 385.5,219.5C 386.702,223.714 387.369,228.048 387.5,232.5C 387.799,234.604 387.466,236.604 386.5,238.5C 382.928,237.36 379.428,237.36 376,238.5C 374.333,237.5 372.667,236.5 371,235.5C 367.052,235.303 363.386,235.636 360,236.5C 358.295,235.237 356.628,234.903 355,235.5C 354.333,234.833 353.667,234.167 353,233.5C 350,233.833 347,234.167 344,234.5C 343.333,233.833 342.667,233.167 342,232.5C 340.333,232.833 338.667,233.167 337,233.5C 336.333,232.833 335.667,232.167 335,231.5C 332,231.833 329,232.167 326,232.5C 325,231.5 324,230.5 323,229.5C 317.727,229.308 312.727,229.641 308,230.5C 307.147,228.875 306.147,228.542 305,229.5C 304.333,228.833 303.667,228.167 303,227.5C 302.23,228.598 301.397,228.598 300.5,227.5C 297.806,218.034 299.639,209.367 306,201.5C 307.571,199.077 309.737,197.744 312.5,197.5C 312.498,203.018 312.165,208.518 311.5,214C 310.909,225.25 315.909,229.083 326.5,225.5C 326.167,223.5 325.833,221.5 325.5,219.5 Z"/></g>
<g><path style="opacity:1" fill="#2c90c7" d="M 178.5,219.5 C 178.236,226.89 178.57,234.223 179.5,241.5C 176.207,240.911 172.707,240.911 169,241.5C 168.333,240.833 167.667,240.167 167,239.5C 163.333,239.833 159.667,240.167 156,240.5C 155.147,238.875 154.147,238.542 153,239.5C 151.667,238.833 150.333,238.167 149,237.5C 146,237.833 143,238.167 140,238.5C 138.333,237.5 136.667,236.5 135,235.5C 131.052,235.303 127.386,235.636 124,236.5C 122.295,235.237 120.628,234.903 119,235.5C 118.333,234.833 117.667,234.167 117,233.5C 115.037,234.737 113.203,234.737 111.5,233.5C 111.869,226.281 113.202,219.281 115.5,212.5C 116.688,211.952 117.855,211.619 119,211.5C 120.333,214.167 121.667,214.167 123,211.5C 124.667,212.5 126.333,213.5 128,214.5C 131,214.167 134,213.833 137,213.5C 137.667,214.167 138.333,214.833 139,215.5C 140.779,214.521 142.445,214.854 144,216.5C 147.667,216.167 151.333,215.833 155,215.5C 155.667,216.167 156.333,216.833 157,217.5C 158.628,216.903 160.295,217.237 162,218.5C 165,218.167 168,217.833 171,217.5C 172.892,218.13 174.559,219.13 176,220.5C 176.671,219.748 177.504,219.414 178.5,219.5 Z"/></g>
<g><path style="opacity:1" fill="#298ac6" d="M 300.5,227.5 C 301.397,228.598 302.23,228.598 303,227.5C 303.667,228.167 304.333,228.833 305,229.5C 306.147,228.542 307.147,228.875 308,230.5C 312.727,229.641 317.727,229.308 323,229.5C 324,230.5 325,231.5 326,232.5C 329,232.167 332,231.833 335,231.5C 335.667,232.167 336.333,232.833 337,233.5C 338.667,233.167 340.333,232.833 342,232.5C 342.667,233.167 343.333,233.833 344,234.5C 347,234.167 350,233.833 353,233.5C 353.667,234.167 354.333,234.833 355,235.5C 356.628,234.903 358.295,235.237 360,236.5C 363.386,235.636 367.052,235.303 371,235.5C 372.667,236.5 374.333,237.5 376,238.5C 379.428,237.36 382.928,237.36 386.5,238.5C 387.466,236.604 387.799,234.604 387.5,232.5C 388.492,240.316 388.826,248.316 388.5,256.5C 387.603,255.402 386.77,255.402 386,256.5C 385,255.5 384,254.5 383,253.5C 379.333,253.833 375.667,254.167 372,254.5C 371.333,253.833 370.667,253.167 370,252.5C 368.249,253.174 366.583,253.507 365,253.5C 364.333,252.833 363.667,252.167 363,251.5C 359.333,251.833 355.667,252.167 352,252.5C 351,251.5 350,250.5 349,249.5C 344.667,249.833 340.333,250.167 336,250.5C 335.147,248.875 334.147,248.542 333,249.5C 331.667,248.833 330.333,248.167 329,247.5C 326,247.833 323,248.167 320,248.5C 318.108,247.87 316.441,246.87 315,245.5C 311.333,245.833 307.667,246.167 304,246.5C 302.982,244.436 301.649,244.102 300,245.5C 298.739,245.241 297.739,244.574 297,243.5C 293.333,243.833 289.667,244.167 286,244.5C 284.333,243.5 282.667,242.5 281,241.5C 277.769,242.313 274.769,242.646 272,242.5C 271.333,241.833 270.667,241.167 270,240.5C 268.249,241.174 266.583,241.507 265,241.5C 264.333,240.833 263.667,240.167 263,239.5C 259.333,239.833 255.667,240.167 252,240.5C 250.108,239.87 248.441,238.87 247,237.5C 243.55,238.598 240.05,238.598 236.5,237.5C 239.024,236.26 241.691,235.093 244.5,234C 248.663,231.164 250.829,227.331 251,222.5C 248.592,224.956 245.759,226.789 242.5,228C 236.689,229.688 232.022,228.188 228.5,223.5C 237.121,222.607 244.288,218.94 250,212.5C 250.739,216.385 252.073,220.052 254,223.5C 264.01,234.023 274.844,235.023 286.5,226.5C 290.989,230.075 295.655,230.408 300.5,227.5 Z"/></g>
<g><path style="opacity:1" fill="#3198cb" d="M 111.5,233.5 C 113.203,234.737 115.037,234.737 117,233.5C 117.667,234.167 118.333,234.833 119,235.5C 120.628,234.903 122.295,235.237 124,236.5C 127.386,235.636 131.052,235.303 135,235.5C 136.667,236.5 138.333,237.5 140,238.5C 143,238.167 146,237.833 149,237.5C 150.333,238.167 151.667,238.833 153,239.5C 154.147,238.542 155.147,238.875 156,240.5C 159.667,240.167 163.333,239.833 167,239.5C 167.667,240.167 168.333,240.833 169,241.5C 172.707,240.911 176.207,240.911 179.5,241.5C 182.162,243.268 185.162,243.935 188.5,243.5C 192.281,244.621 195.781,244.621 199,243.5C 200.333,246.167 201.667,246.167 203,243.5C 204.667,244.5 206.333,245.5 208,246.5C 211,246.167 214,245.833 217,245.5C 218.555,247.146 220.221,247.479 222,246.5C 222.667,247.167 223.333,247.833 224,248.5C 227.667,248.167 231.333,247.833 235,247.5C 235.667,248.167 236.333,248.833 237,249.5C 241.256,250.01 245.256,250.01 249,249.5C 252.838,250.853 256.505,251.853 260,252.5C 262.333,252.167 264.667,251.833 267,251.5C 267.667,252.167 268.333,252.833 269,253.5C 270.583,253.507 272.249,253.174 274,252.5C 274.667,253.167 275.333,253.833 276,254.5C 279,254.167 282,253.833 285,253.5C 285.853,255.125 286.853,255.458 288,254.5C 289.333,255.167 290.667,255.833 292,256.5C 295.667,256.167 299.333,255.833 303,255.5C 304.667,256.5 306.333,257.5 308,258.5C 311,258.167 314,257.833 317,257.5C 318.333,258.167 319.667,258.833 321,259.5C 322.779,258.521 324.445,258.854 326,260.5C 329,260.167 332,259.833 335,259.5C 335.853,261.125 336.853,261.458 338,260.5C 339.333,261.167 340.667,261.833 342,262.5C 345.667,262.167 349.333,261.833 353,261.5C 353.853,263.125 354.853,263.458 356,262.5C 357.333,263.167 358.667,263.833 360,264.5C 362.333,264.167 364.667,263.833 367,263.5C 367.667,264.167 368.333,264.833 369,265.5C 374.333,265.5 379.667,265.5 385,265.5C 385.708,266.381 386.542,267.047 387.5,267.5C 386.556,270.999 386.556,274.332 387.5,277.5C 387.672,278.492 387.338,279.158 386.5,279.5C 383.918,279.779 381.418,279.779 379,279.5C 378.333,278.833 377.667,278.167 377,277.5C 373.333,277.833 369.667,278.167 366,278.5C 364.295,277.237 362.628,276.903 361,277.5C 360.333,276.833 359.667,276.167 359,275.5C 355.333,275.833 351.667,276.167 348,276.5C 347.333,275.833 346.667,275.167 346,274.5C 341.744,273.99 337.744,273.99 334,274.5C 332.295,273.237 330.628,272.903 329,273.5C 328.333,272.833 327.667,272.167 327,271.5C 325.855,271.619 324.688,271.952 323.5,272.5C 319.995,262.186 312.995,258.686 302.5,262C 299.96,264.205 297.793,266.705 296,269.5C 295.907,266.993 295.074,264.826 293.5,263C 289.914,261.892 286.247,261.392 282.5,261.5C 283.767,271.308 283.767,280.974 282.5,290.5C 282.672,289.508 282.338,288.842 281.5,288.5C 283.832,277.965 280.165,270.465 270.5,266C 259.146,265.509 250.48,270.009 244.5,279.5C 243.895,277.519 242.895,277.185 241.5,278.5C 242.175,271.673 239.175,268.84 232.5,270C 225.592,273.698 220.092,278.864 216,285.5C 215.667,277.167 215.333,268.833 215,260.5C 211.088,257.576 206.922,256.91 202.5,258.5C 200.951,258.264 199.451,258.264 198,258.5C 196.295,257.237 194.628,256.903 193,257.5C 192.333,256.833 191.667,256.167 191,255.5C 187.614,256.364 183.948,256.697 180,256.5C 179.147,254.875 178.147,254.542 177,255.5C 175.667,254.833 174.333,254.167 173,253.5C 170,253.833 167,254.167 164,254.5C 162.333,253.5 160.667,252.5 159,251.5C 155.052,251.303 151.386,251.636 148,252.5C 146.295,251.237 144.628,250.903 143,251.5C 142.333,250.833 141.667,250.167 141,249.5C 137.333,249.833 133.667,250.167 130,250.5C 128.445,248.854 126.779,248.521 125,249.5C 124.333,248.833 123.667,248.167 123,247.5C 119.137,247.774 114.97,247.774 110.5,247.5C 110.181,242.637 110.514,237.97 111.5,233.5 Z"/></g>
<g><path style="opacity:1" fill="#2d92c8" d="M 222.5,235.5 C 227.007,237.113 231.673,237.779 236.5,237.5C 240.05,238.598 243.55,238.598 247,237.5C 248.441,238.87 250.108,239.87 252,240.5C 255.667,240.167 259.333,239.833 263,239.5C 263.667,240.167 264.333,240.833 265,241.5C 266.583,241.507 268.249,241.174 270,240.5C 270.667,241.167 271.333,241.833 272,242.5C 274.769,242.646 277.769,242.313 281,241.5C 282.667,242.5 284.333,243.5 286,244.5C 289.667,244.167 293.333,243.833 297,243.5C 297.739,244.574 298.739,245.241 300,245.5C 301.649,244.102 302.982,244.436 304,246.5C 307.667,246.167 311.333,245.833 315,245.5C 316.441,246.87 318.108,247.87 320,248.5C 323,248.167 326,247.833 329,247.5C 330.333,248.167 331.667,248.833 333,249.5C 334.147,248.542 335.147,248.875 336,250.5C 340.333,250.167 344.667,249.833 349,249.5C 350,250.5 351,251.5 352,252.5C 355.667,252.167 359.333,251.833 363,251.5C 363.667,252.167 364.333,252.833 365,253.5C 366.583,253.507 368.249,253.174 370,252.5C 370.667,253.167 371.333,253.833 372,254.5C 375.667,254.167 379.333,253.833 383,253.5C 384,254.5 385,255.5 386,256.5C 386.77,255.402 387.603,255.402 388.5,256.5C 388.448,260.198 388.114,263.865 387.5,267.5C 386.542,267.047 385.708,266.381 385,265.5C 379.667,265.5 374.333,265.5 369,265.5C 368.333,264.833 367.667,264.167 367,263.5C 364.667,263.833 362.333,264.167 360,264.5C 358.667,263.833 357.333,263.167 356,262.5C 354.853,263.458 353.853,263.125 353,261.5C 349.333,261.833 345.667,262.167 342,262.5C 340.667,261.833 339.333,261.167 338,260.5C 336.853,261.458 335.853,261.125 335,259.5C 332,259.833 329,260.167 326,260.5C 324.445,258.854 322.779,258.521 321,259.5C 319.667,258.833 318.333,258.167 317,257.5C 314,257.833 311,258.167 308,258.5C 306.333,257.5 304.667,256.5 303,255.5C 299.333,255.833 295.667,256.167 292,256.5C 290.667,255.833 289.333,255.167 288,254.5C 286.853,255.458 285.853,255.125 285,253.5C 282,253.833 279,254.167 276,254.5C 275.333,253.833 274.667,253.167 274,252.5C 272.249,253.174 270.583,253.507 269,253.5C 268.333,252.833 267.667,252.167 267,251.5C 264.667,251.833 262.333,252.167 260,252.5C 256.505,251.853 252.838,250.853 249,249.5C 245.256,250.01 241.256,250.01 237,249.5C 236.333,248.833 235.667,248.167 235,247.5C 231.333,247.833 227.667,248.167 224,248.5C 223.333,247.833 222.667,247.167 222,246.5C 220.221,247.479 218.555,247.146 217,245.5C 214,245.833 211,246.167 208,246.5C 206.333,245.5 204.667,244.5 203,243.5C 201.667,246.167 200.333,246.167 199,243.5C 195.781,244.621 192.281,244.621 188.5,243.5C 190.042,242.859 191.376,241.859 192.5,240.5C 191.691,238.929 191.357,237.262 191.5,235.5C 191.312,233.897 191.812,232.563 193,231.5C 194.333,231.5 195.667,231.5 197,231.5C 197.739,232.574 198.739,233.241 200,233.5C 201.649,232.102 202.982,232.436 204,234.5C 207.667,234.167 211.333,233.833 215,233.5C 217.665,235.938 220.165,236.605 222.5,235.5 Z"/></g>
<g><path style="opacity:1" fill="#c3ceec" d="M 115.5,209.5 C 115.5,210.5 115.5,211.5 115.5,212.5C 113.202,219.281 111.869,226.281 111.5,233.5C 110.514,237.97 110.181,242.637 110.5,247.5C 110.5,250.833 110.5,254.167 110.5,257.5C 110.5,258.833 110.5,260.167 110.5,261.5C 109.833,254.833 109.167,248.167 108.5,241.5C 109.284,230.378 111.617,219.712 115.5,209.5 Z"/></g>
<g><path style="opacity:1" fill="#379fce" d="M 110.5,247.5 C 114.97,247.774 119.137,247.774 123,247.5C 123.667,248.167 124.333,248.833 125,249.5C 126.779,248.521 128.445,248.854 130,250.5C 133.667,250.167 137.333,249.833 141,249.5C 141.667,250.167 142.333,250.833 143,251.5C 144.628,250.903 146.295,251.237 148,252.5C 151.386,251.636 155.052,251.303 159,251.5C 160.667,252.5 162.333,253.5 164,254.5C 167,254.167 170,253.833 173,253.5C 174.333,254.167 175.667,254.833 177,255.5C 178.147,254.542 179.147,254.875 180,256.5C 183.948,256.697 187.614,256.364 191,255.5C 191.667,256.167 192.333,256.833 193,257.5C 194.628,256.903 196.295,257.237 198,258.5C 199.451,258.264 200.951,258.264 202.5,258.5C 203.736,270.144 203.403,281.811 201.5,293.5C 195.711,288.096 189.044,283.93 181.5,281C 174.181,274.925 175.014,270.758 184,268.5C 188.319,268.408 191.152,270.408 192.5,274.5C 196.372,275.991 199.539,274.991 202,271.5C 203.054,265.543 200.554,262.043 194.5,261C 184.325,259.041 174.992,260.874 166.5,266.5C 165.733,263.589 164.233,262.922 162,264.5C 161,263.5 160,262.5 159,261.5C 155.333,261.833 151.667,262.167 148,262.5C 146.667,259.833 145.333,259.833 144,262.5C 143,261.5 142,260.5 141,259.5C 136.667,259.833 132.333,260.167 128,260.5C 127,259.5 126,258.5 125,257.5C 120.216,258.598 115.383,258.598 110.5,257.5C 110.5,254.167 110.5,250.833 110.5,247.5 Z"/></g>
<g><path style="opacity:1" fill="#5d1dea" d="M 241.5,278.5 C 240.442,288.022 240.442,297.522 241.5,307C 241.095,307.945 240.428,308.612 239.5,309C 235.683,310.023 232.183,309.523 229,307.5C 227.586,298.582 227.086,289.582 227.5,280.5C 225.097,280.393 223.264,281.393 222,283.5C 215.391,291.481 213.224,300.481 215.5,310.5C 214.975,311.192 214.308,311.692 213.5,312C 210.5,312.667 207.5,312.667 204.5,312C 203.382,310.926 202.382,309.76 201.5,308.5C 199.074,310.941 196.407,312.941 193.5,314.5C 184.245,317.639 175.245,317.139 166.5,313C 162.647,309.898 161.647,306.065 163.5,301.5C 166.475,299.176 169.808,298.343 173.5,299C 176.548,308.205 181.715,309.705 189,303.5C 189.357,300.144 188.191,297.311 185.5,295C 179.781,292.471 174.115,289.971 168.5,287.5C 164.772,284.549 162.439,280.716 161.5,276C 162.259,272.313 163.926,269.146 166.5,266.5C 174.992,260.874 184.325,259.041 194.5,261C 200.554,262.043 203.054,265.543 202,271.5C 199.539,274.991 196.372,275.991 192.5,274.5C 191.152,270.408 188.319,268.408 184,268.5C 175.014,270.758 174.181,274.925 181.5,281C 189.044,283.93 195.711,288.096 201.5,293.5C 203.403,281.811 203.736,270.144 202.5,258.5C 206.922,256.91 211.088,257.576 215,260.5C 215.333,268.833 215.667,277.167 216,285.5C 220.092,278.864 225.592,273.698 232.5,270C 239.175,268.84 242.175,271.673 241.5,278.5 Z"/></g>
<g><path style="opacity:1" fill="#5c1fea" d="M 323.5,272.5 C 324.3,280.425 322.633,287.759 318.5,294.5C 313.029,299.827 306.696,301.327 299.5,299C 298.044,297.255 296.711,295.422 295.5,293.5C 294.183,299.988 294.183,306.322 295.5,312.5C 295.859,314.766 295.192,316.599 293.5,318C 284.299,319.467 280.299,315.467 281.5,306C 281.876,300.831 282.209,295.665 282.5,290.5C 283.767,280.974 283.767,271.308 282.5,261.5C 286.247,261.392 289.914,261.892 293.5,263C 295.074,264.826 295.907,266.993 296,269.5C 297.793,266.705 299.96,264.205 302.5,262C 312.995,258.686 319.995,262.186 323.5,272.5 Z"/></g>
<g><path style="opacity:1" fill="#5d1fea" d="M 281.5,288.5 C 276.549,301.981 266.882,307.815 252.5,306C 242.887,299.325 240.221,290.491 244.5,279.5C 250.48,270.009 259.146,265.509 270.5,266C 280.165,270.465 283.832,277.965 281.5,288.5 Z"/></g>
<g><path style="opacity:1" fill="#3ca9d1" d="M 110.5,257.5 C 115.383,258.598 120.216,258.598 125,257.5C 126,258.5 127,259.5 128,260.5C 132.333,260.167 136.667,259.833 141,259.5C 142,260.5 143,261.5 144,262.5C 145.333,259.833 146.667,259.833 148,262.5C 151.667,262.167 155.333,261.833 159,261.5C 160,262.5 161,263.5 162,264.5C 164.233,262.922 165.733,263.589 166.5,266.5C 163.926,269.146 162.259,272.313 161.5,276C 162.439,280.716 164.772,284.549 168.5,287.5C 166.459,287.146 164.626,287.146 163,287.5C 162.333,286.833 161.667,286.167 161,285.5C 157.333,285.833 153.667,286.167 150,286.5C 148.295,285.237 146.628,284.903 145,285.5C 144.333,284.833 143.667,284.167 143,283.5C 140,283.833 137,284.167 134,284.5C 132.445,282.854 130.779,282.521 129,283.5C 128.333,282.833 127.667,282.167 127,281.5C 122.876,281.748 118.376,281.748 113.5,281.5C 111.975,274.929 110.975,268.262 110.5,261.5C 110.5,260.167 110.5,258.833 110.5,257.5 Z"/></g>
<g><path style="opacity:1" fill="#5c20e9" d="M 340.5,296.5 C 337.306,297.952 334.306,297.619 331.5,295.5C 329.568,292.823 329.068,289.823 330,286.5C 334.551,282.418 338.884,282.751 343,287.5C 343.869,290.993 343.036,293.993 340.5,296.5 Z"/></g>
<g><path style="opacity:1" fill="#38a2cf" d="M 302.5,267.5 C 309.092,267.254 312.092,270.588 311.5,277.5C 311.253,282.075 310.086,286.408 308,290.5C 304.146,295.757 300.479,295.757 297,290.5C 296.333,285.5 296.333,280.5 297,275.5C 298.273,272.403 300.107,269.736 302.5,267.5 Z"/></g>
<g><path style="opacity:1" fill="#3ca6d1" d="M 262.5,272.5 C 264.722,272.178 266.556,272.845 268,274.5C 272.164,283.678 270.664,291.845 263.5,299C 261.231,299.758 259.064,299.591 257,298.5C 252.372,288.308 254.206,279.641 262.5,272.5 Z"/></g>
<g><path style="opacity:1" fill="#41b1d5" d="M 113.5,281.5 C 118.376,281.748 122.876,281.748 127,281.5C 127.667,282.167 128.333,282.833 129,283.5C 130.779,282.521 132.445,282.854 134,284.5C 137,284.167 140,283.833 143,283.5C 143.667,284.167 144.333,284.833 145,285.5C 146.628,284.903 148.295,285.237 150,286.5C 153.667,286.167 157.333,285.833 161,285.5C 161.667,286.167 162.333,286.833 163,287.5C 164.626,287.146 166.459,287.146 168.5,287.5C 174.115,289.971 179.781,292.471 185.5,295C 188.191,297.311 189.357,300.144 189,303.5C 181.715,309.705 176.548,308.205 173.5,299C 169.808,298.343 166.475,299.176 163.5,301.5C 163.631,300.761 163.464,300.094 163,299.5C 161.333,299.833 159.667,300.167 158,300.5C 156.445,298.854 154.779,298.521 153,299.5C 152.333,298.833 151.667,298.167 151,297.5C 148,297.833 145,298.167 142,298.5C 140.295,297.237 138.628,296.903 137,297.5C 136.333,296.833 135.667,296.167 135,295.5C 129.589,295.656 123.755,295.656 117.5,295.5C 116.163,290.817 114.83,286.15 113.5,281.5 Z"/></g>
<g><path style="opacity:1" fill="#3ba3cf" d="M 386.5,279.5 C 384.919,286.853 382.586,293.853 379.5,300.5C 372.832,299.832 366.332,299.832 360,300.5C 357.903,299.009 355.57,298.009 353,297.5C 350.667,297.833 348.333,298.167 346,298.5C 343.887,297.415 342.054,296.748 340.5,296.5C 343.036,293.993 343.869,290.993 343,287.5C 338.884,282.751 334.551,282.418 330,286.5C 329.068,289.823 329.568,292.823 331.5,295.5C 330.312,296.048 329.145,296.381 328,296.5C 327.333,295.833 326.667,295.167 326,294.5C 323.67,295.169 321.17,295.169 318.5,294.5C 322.633,287.759 324.3,280.425 323.5,272.5C 324.688,271.952 325.855,271.619 327,271.5C 327.667,272.167 328.333,272.833 329,273.5C 330.628,272.903 332.295,273.237 334,274.5C 337.744,273.99 341.744,273.99 346,274.5C 346.667,275.167 347.333,275.833 348,276.5C 351.667,276.167 355.333,275.833 359,275.5C 359.667,276.167 360.333,276.833 361,277.5C 362.628,276.903 364.295,277.237 366,278.5C 369.667,278.167 373.333,277.833 377,277.5C 377.667,278.167 378.333,278.833 379,279.5C 381.418,279.779 383.918,279.779 386.5,279.5 Z"/></g>
<g><path style="opacity:1" fill="#3fadd3" d="M 318.5,294.5 C 321.17,295.169 323.67,295.169 326,294.5C 326.667,295.167 327.333,295.833 328,296.5C 329.145,296.381 330.312,296.048 331.5,295.5C 334.306,297.619 337.306,297.952 340.5,296.5C 342.054,296.748 343.887,297.415 346,298.5C 348.333,298.167 350.667,297.833 353,297.5C 355.57,298.009 357.903,299.009 360,300.5C 366.332,299.832 372.832,299.832 379.5,300.5C 377.616,306.598 374.949,312.265 371.5,317.5C 370.207,316.355 369.041,316.689 368,318.5C 366.667,315.833 365.333,315.833 364,318.5C 363,317.5 362,316.5 361,315.5C 357.333,315.833 353.667,316.167 350,316.5C 349,315.5 348,314.5 347,313.5C 343.333,313.833 339.667,314.167 336,314.5C 334.667,311.833 333.333,311.833 332,314.5C 330.667,311.833 329.333,311.833 328,314.5C 327,313.5 326,312.5 325,311.5C 322.667,311.833 320.333,312.167 318,312.5C 316.559,311.13 314.892,310.13 313,309.5C 310,309.833 307,310.167 304,310.5C 302.667,307.833 301.333,307.833 300,310.5C 297.682,308.225 296.182,308.891 295.5,312.5C 294.183,306.322 294.183,299.988 295.5,293.5C 296.711,295.422 298.044,297.255 299.5,299C 306.696,301.327 313.029,299.827 318.5,294.5 Z"/></g>
<g><path style="opacity:1" fill="#48bdd9" d="M 163.5,301.5 C 161.647,306.065 162.647,309.898 166.5,313C 175.245,317.139 184.245,317.639 193.5,314.5C 194.458,314.953 195.292,315.619 196,316.5C 199.667,316.167 203.333,315.833 207,315.5C 207.853,317.125 208.853,317.458 210,316.5C 211.333,317.167 212.667,317.833 214,318.5C 217.667,318.167 221.333,317.833 225,317.5C 225.853,319.125 226.853,319.458 228,318.5C 229.333,319.167 230.667,319.833 232,320.5C 236.41,319.675 241.077,319.675 246,320.5C 246.667,321.167 247.333,321.833 248,322.5C 251,322.167 254,321.833 257,321.5C 258.555,323.146 260.221,323.479 262,322.5C 262.667,323.167 263.333,323.833 264,324.5C 267.667,324.167 271.333,323.833 275,323.5C 275.853,325.125 276.853,325.458 278,324.5C 279.333,325.167 280.667,325.833 282,326.5C 285,326.167 288,325.833 291,325.5C 292.667,326.5 294.333,327.5 296,328.5C 299.667,328.167 303.333,327.833 307,327.5C 307.928,329.335 309.094,329.668 310.5,328.5C 311.748,329.04 312.915,329.707 314,330.5C 317.667,330.167 321.333,329.833 325,329.5C 325.853,331.125 326.853,331.458 328,330.5C 329.333,331.167 330.667,331.833 332,332.5C 335.386,331.636 339.052,331.303 343,331.5C 344.667,332.5 346.333,333.5 348,334.5C 351,334.167 354,333.833 357,333.5C 357.708,334.381 358.542,335.047 359.5,335.5C 356.514,339.817 353.18,343.817 349.5,347.5C 349.315,345.804 348.481,344.471 347,343.5C 344,343.833 341,344.167 338,344.5C 337,343.5 336,342.5 335,341.5C 331.333,341.833 327.667,342.167 324,342.5C 323.333,341.833 322.667,341.167 322,340.5C 320.249,341.174 318.583,341.507 317,341.5C 316.333,340.833 315.667,340.167 315,339.5C 311.333,339.833 307.667,340.167 304,340.5C 303,339.5 302,338.5 301,337.5C 296.667,337.833 292.333,338.167 288,338.5C 287.147,336.875 286.147,336.542 285,337.5C 283.667,336.833 282.333,336.167 281,335.5C 278,335.833 275,336.167 272,336.5C 270.108,335.87 268.441,334.87 267,333.5C 263.333,333.833 259.667,334.167 256,334.5C 254.982,332.436 253.649,332.102 252,333.5C 250.739,333.241 249.739,332.574 249,331.5C 245.333,331.833 241.667,332.167 238,332.5C 236.333,331.5 234.667,330.5 233,329.5C 229.769,330.313 226.769,330.646 224,330.5C 223.333,329.833 222.667,329.167 222,328.5C 220.249,329.174 218.583,329.507 217,329.5C 216.333,328.833 215.667,328.167 215,327.5C 211.333,327.833 207.667,328.167 204,328.5C 202.108,327.87 200.441,326.87 199,325.5C 195.333,325.833 191.667,326.167 188,326.5C 186.982,324.436 185.649,324.102 184,325.5C 182.739,325.241 181.739,324.574 181,323.5C 178,323.833 175,324.167 172,324.5C 170.108,323.87 168.441,322.87 167,321.5C 163.052,321.303 159.386,321.636 156,322.5C 154.982,320.436 153.649,320.102 152,321.5C 150.739,321.241 149.739,320.574 149,319.5C 144.667,319.833 140.333,320.167 136,320.5C 135,319.5 134,318.5 133,317.5C 131.34,318.166 129.506,318.166 127.5,317.5C 123.619,310.405 120.285,303.071 117.5,295.5C 123.755,295.656 129.589,295.656 135,295.5C 135.667,296.167 136.333,296.833 137,297.5C 138.628,296.903 140.295,297.237 142,298.5C 145,298.167 148,297.833 151,297.5C 151.667,298.167 152.333,298.833 153,299.5C 154.779,298.521 156.445,298.854 158,300.5C 159.667,300.167 161.333,299.833 163,299.5C 163.464,300.094 163.631,300.761 163.5,301.5 Z"/></g>
<g><path style="opacity:1" fill="#44b6d6" d="M 244.5,279.5 C 240.221,290.491 242.887,299.325 252.5,306C 266.882,307.815 276.549,301.981 281.5,288.5C 282.338,288.842 282.672,289.508 282.5,290.5C 282.209,295.665 281.876,300.831 281.5,306C 280.299,315.467 284.299,319.467 293.5,318C 295.192,316.599 295.859,314.766 295.5,312.5C 296.182,308.891 297.682,308.225 300,310.5C 301.333,307.833 302.667,307.833 304,310.5C 307,310.167 310,309.833 313,309.5C 314.892,310.13 316.559,311.13 318,312.5C 320.333,312.167 322.667,311.833 325,311.5C 326,312.5 327,313.5 328,314.5C 329.333,311.833 330.667,311.833 332,314.5C 333.333,311.833 334.667,311.833 336,314.5C 339.667,314.167 343.333,313.833 347,313.5C 348,314.5 349,315.5 350,316.5C 353.667,316.167 357.333,315.833 361,315.5C 362,316.5 363,317.5 364,318.5C 365.333,315.833 366.667,315.833 368,318.5C 369.041,316.689 370.207,316.355 371.5,317.5C 368.479,324.225 364.479,330.225 359.5,335.5C 358.542,335.047 357.708,334.381 357,333.5C 354,333.833 351,334.167 348,334.5C 346.333,333.5 344.667,332.5 343,331.5C 339.052,331.303 335.386,331.636 332,332.5C 330.667,331.833 329.333,331.167 328,330.5C 326.853,331.458 325.853,331.125 325,329.5C 321.333,329.833 317.667,330.167 314,330.5C 312.915,329.707 311.748,329.04 310.5,328.5C 309.094,329.668 307.928,329.335 307,327.5C 303.333,327.833 299.667,328.167 296,328.5C 294.333,327.5 292.667,326.5 291,325.5C 288,325.833 285,326.167 282,326.5C 280.667,325.833 279.333,325.167 278,324.5C 276.853,325.458 275.853,325.125 275,323.5C 271.333,323.833 267.667,324.167 264,324.5C 263.333,323.833 262.667,323.167 262,322.5C 260.221,323.479 258.555,323.146 257,321.5C 254,321.833 251,322.167 248,322.5C 247.333,321.833 246.667,321.167 246,320.5C 241.077,319.675 236.41,319.675 232,320.5C 230.667,319.833 229.333,319.167 228,318.5C 226.853,319.458 225.853,319.125 225,317.5C 221.333,317.833 217.667,318.167 214,318.5C 212.667,317.833 211.333,317.167 210,316.5C 208.853,317.458 207.853,317.125 207,315.5C 203.333,315.833 199.667,316.167 196,316.5C 195.292,315.619 194.458,314.953 193.5,314.5C 196.407,312.941 199.074,310.941 201.5,308.5C 202.382,309.76 203.382,310.926 204.5,312C 207.5,312.667 210.5,312.667 213.5,312C 214.308,311.692 214.975,311.192 215.5,310.5C 213.224,300.481 215.391,291.481 222,283.5C 223.264,281.393 225.097,280.393 227.5,280.5C 227.086,289.582 227.586,298.582 229,307.5C 232.183,309.523 235.683,310.023 239.5,309C 240.428,308.612 241.095,307.945 241.5,307C 240.442,297.522 240.442,288.022 241.5,278.5C 242.895,277.185 243.895,277.519 244.5,279.5 Z"/></g>
<g><path style="opacity:1" fill="#4cc4db" d="M 127.5,317.5 C 129.506,318.166 131.34,318.166 133,317.5C 134,318.5 135,319.5 136,320.5C 140.333,320.167 144.667,319.833 149,319.5C 149.739,320.574 150.739,321.241 152,321.5C 153.649,320.102 154.982,320.436 156,322.5C 159.386,321.636 163.052,321.303 167,321.5C 168.441,322.87 170.108,323.87 172,324.5C 175,324.167 178,323.833 181,323.5C 181.739,324.574 182.739,325.241 184,325.5C 185.649,324.102 186.982,324.436 188,326.5C 191.667,326.167 195.333,325.833 199,325.5C 200.441,326.87 202.108,327.87 204,328.5C 207.667,328.167 211.333,327.833 215,327.5C 215.667,328.167 216.333,328.833 217,329.5C 218.583,329.507 220.249,329.174 222,328.5C 222.667,329.167 223.333,329.833 224,330.5C 226.769,330.646 229.769,330.313 233,329.5C 234.667,330.5 236.333,331.5 238,332.5C 241.667,332.167 245.333,331.833 249,331.5C 249.739,332.574 250.739,333.241 252,333.5C 253.649,332.102 254.982,332.436 256,334.5C 259.667,334.167 263.333,333.833 267,333.5C 268.441,334.87 270.108,335.87 272,336.5C 275,336.167 278,335.833 281,335.5C 282.333,336.167 283.667,336.833 285,337.5C 286.147,336.542 287.147,336.875 288,338.5C 292.333,338.167 296.667,337.833 301,337.5C 302,338.5 303,339.5 304,340.5C 307.667,340.167 311.333,339.833 315,339.5C 315.667,340.167 316.333,340.833 317,341.5C 318.583,341.507 320.249,341.174 322,340.5C 322.667,341.167 323.333,341.833 324,342.5C 327.667,342.167 331.333,341.833 335,341.5C 336,342.5 337,343.5 338,344.5C 341,344.167 344,343.833 347,343.5C 348.481,344.471 349.315,345.804 349.5,347.5C 347.105,350.861 344.105,353.528 340.5,355.5C 338.983,355.489 337.816,354.823 337,353.5C 331.667,353.5 326.333,353.5 321,353.5C 320.333,352.833 319.667,352.167 319,351.5C 316.667,351.833 314.333,352.167 312,352.5C 310.295,351.237 308.628,350.903 307,351.5C 306.333,350.833 305.667,350.167 305,349.5C 301.333,349.833 297.667,350.167 294,350.5C 292.295,349.237 290.628,348.903 289,349.5C 288.333,348.833 287.667,348.167 287,347.5C 284,347.833 281,348.167 278,348.5C 276.445,346.854 274.779,346.521 273,347.5C 271.667,346.833 270.333,346.167 269,345.5C 265.256,346.01 261.256,346.01 257,345.5C 256.333,344.833 255.667,344.167 255,343.5C 251.333,343.833 247.667,344.167 244,344.5C 242.295,343.237 240.628,342.903 239,343.5C 238.333,342.833 237.667,342.167 237,341.5C 234,341.833 231,342.167 228,342.5C 227.333,341.833 226.667,341.167 226,340.5C 224.249,341.174 222.583,341.507 221,341.5C 220.333,340.833 219.667,340.167 219,339.5C 216.667,339.833 214.333,340.167 212,340.5C 208.505,339.853 204.838,338.853 201,337.5C 198.667,337.833 196.333,338.167 194,338.5C 192.295,337.237 190.628,336.903 189,337.5C 188.333,336.833 187.667,336.167 187,335.5C 183.333,335.833 179.667,336.167 176,336.5C 174.445,334.854 172.779,334.521 171,335.5C 170.333,334.833 169.667,334.167 169,333.5C 166,333.833 163,334.167 160,334.5C 158.333,333.5 156.667,332.5 155,331.5C 153.667,334.167 152.333,334.167 151,331.5C 148.667,331.833 146.333,332.167 144,332.5C 142.667,331.833 141.333,331.167 140,330.5C 138.701,330.966 137.201,330.966 135.5,330.5C 132.583,326.334 129.916,322.001 127.5,317.5 Z"/></g>
<g><path style="opacity:1" fill="#51cadd" d="M 135.5,330.5 C 137.201,330.966 138.701,330.966 140,330.5C 141.333,331.167 142.667,331.833 144,332.5C 146.333,332.167 148.667,331.833 151,331.5C 152.333,334.167 153.667,334.167 155,331.5C 156.667,332.5 158.333,333.5 160,334.5C 163,334.167 166,333.833 169,333.5C 169.667,334.167 170.333,334.833 171,335.5C 172.779,334.521 174.445,334.854 176,336.5C 179.667,336.167 183.333,335.833 187,335.5C 187.667,336.167 188.333,336.833 189,337.5C 190.628,336.903 192.295,337.237 194,338.5C 196.333,338.167 198.667,337.833 201,337.5C 204.838,338.853 208.505,339.853 212,340.5C 214.333,340.167 216.667,339.833 219,339.5C 219.667,340.167 220.333,340.833 221,341.5C 222.583,341.507 224.249,341.174 226,340.5C 226.667,341.167 227.333,341.833 228,342.5C 231,342.167 234,341.833 237,341.5C 237.667,342.167 238.333,342.833 239,343.5C 240.628,342.903 242.295,343.237 244,344.5C 247.667,344.167 251.333,343.833 255,343.5C 255.667,344.167 256.333,344.833 257,345.5C 261.256,346.01 265.256,346.01 269,345.5C 270.333,346.167 271.667,346.833 273,347.5C 274.779,346.521 276.445,346.854 278,348.5C 281,348.167 284,347.833 287,347.5C 287.667,348.167 288.333,348.833 289,349.5C 290.628,348.903 292.295,349.237 294,350.5C 297.667,350.167 301.333,349.833 305,349.5C 305.667,350.167 306.333,350.833 307,351.5C 308.628,350.903 310.295,351.237 312,352.5C 314.333,352.167 316.667,351.833 319,351.5C 319.667,352.167 320.333,352.833 321,353.5C 326.333,353.5 331.667,353.5 337,353.5C 337.816,354.823 338.983,355.489 340.5,355.5C 337.393,359.215 333.727,362.215 329.5,364.5C 328.833,364.5 328.167,364.5 327.5,364.5C 324.164,363.834 320.997,363.834 318,364.5C 316.333,363.5 314.667,362.5 313,361.5C 310,361.833 307,362.167 304,362.5C 302.667,359.833 301.333,359.833 300,362.5C 298.333,361.5 296.667,360.5 295,359.5C 292,359.833 289,360.167 286,360.5C 284.333,359.5 282.667,358.5 281,357.5C 276.667,357.833 272.333,358.167 268,358.5C 266.333,357.5 264.667,356.5 263,355.5C 258.667,355.833 254.333,356.167 250,356.5C 249,355.5 248,354.5 247,353.5C 243.333,353.833 239.667,354.167 236,354.5C 234.667,351.833 233.333,351.833 232,354.5C 231,353.5 230,352.5 229,351.5C 225.333,351.833 221.667,352.167 218,352.5C 216.333,351.5 214.667,350.5 213,349.5C 210,349.833 207,350.167 204,350.5C 202.667,347.833 201.333,347.833 200,350.5C 198.333,349.5 196.667,348.5 195,347.5C 191.333,347.833 187.667,348.167 184,348.5C 183,347.5 182,346.5 181,345.5C 176.667,345.833 172.333,346.167 168,346.5C 166.333,345.5 164.667,344.5 163,343.5C 157.549,343.736 152.049,343.736 146.5,343.5C 142.487,339.485 138.821,335.152 135.5,330.5 Z"/></g>
<g><path style="opacity:1" fill="#54d1e0" d="M 327.5,364.5 C 321.948,369.356 315.615,373.023 308.5,375.5C 306.459,375.146 304.626,375.146 303,375.5C 302.333,374.833 301.667,374.167 301,373.5C 298,373.833 295,374.167 292,374.5C 291.333,373.833 290.667,373.167 290,372.5C 288.249,373.174 286.583,373.507 285,373.5C 284.333,372.833 283.667,372.167 283,371.5C 280.667,371.833 278.333,372.167 276,372.5C 273,371.5 270,370.5 267,369.5C 264,369.833 261,370.167 258,370.5C 256.295,369.237 254.628,368.903 253,369.5C 252.333,368.833 251.667,368.167 251,367.5C 247.333,367.833 243.667,368.167 240,368.5C 238.445,366.854 236.779,366.521 235,367.5C 234.333,366.833 233.667,366.167 233,365.5C 230,365.833 227,366.167 224,366.5C 222.333,365.5 220.667,364.5 219,363.5C 217.667,366.167 216.333,366.167 215,363.5C 212.667,363.833 210.333,364.167 208,364.5C 205,363.5 202,362.5 199,361.5C 196.667,361.833 194.333,362.167 192,362.5C 191.333,361.833 190.667,361.167 190,360.5C 188.249,361.174 186.583,361.507 185,361.5C 184.333,360.833 183.667,360.167 183,359.5C 180.667,359.833 178.333,360.167 176,360.5C 174.667,359.833 173.333,359.167 172,358.5C 171,358.833 170,359.167 169,359.5C 166.544,357.715 164.044,357.048 161.5,357.5C 155.871,353.539 150.871,348.873 146.5,343.5C 152.049,343.736 157.549,343.736 163,343.5C 164.667,344.5 166.333,345.5 168,346.5C 172.333,346.167 176.667,345.833 181,345.5C 182,346.5 183,347.5 184,348.5C 187.667,348.167 191.333,347.833 195,347.5C 196.667,348.5 198.333,349.5 200,350.5C 201.333,347.833 202.667,347.833 204,350.5C 207,350.167 210,349.833 213,349.5C 214.667,350.5 216.333,351.5 218,352.5C 221.667,352.167 225.333,351.833 229,351.5C 230,352.5 231,353.5 232,354.5C 233.333,351.833 234.667,351.833 236,354.5C 239.667,354.167 243.333,353.833 247,353.5C 248,354.5 249,355.5 250,356.5C 254.333,356.167 258.667,355.833 263,355.5C 264.667,356.5 266.333,357.5 268,358.5C 272.333,358.167 276.667,357.833 281,357.5C 282.667,358.5 284.333,359.5 286,360.5C 289,360.167 292,359.833 295,359.5C 296.667,360.5 298.333,361.5 300,362.5C 301.333,359.833 302.667,359.833 304,362.5C 307,362.167 310,361.833 313,361.5C 314.667,362.5 316.333,363.5 318,364.5C 320.997,363.834 324.164,363.834 327.5,364.5 Z"/></g>
<g><path style="opacity:1" fill="#5bd9e3" d="M 161.5,357.5 C 164.044,357.048 166.544,357.715 169,359.5C 170,359.167 171,358.833 172,358.5C 173.333,359.167 174.667,359.833 176,360.5C 178.333,360.167 180.667,359.833 183,359.5C 183.667,360.167 184.333,360.833 185,361.5C 186.583,361.507 188.249,361.174 190,360.5C 190.667,361.167 191.333,361.833 192,362.5C 194.333,362.167 196.667,361.833 199,361.5C 202,362.5 205,363.5 208,364.5C 210.333,364.167 212.667,363.833 215,363.5C 216.333,366.167 217.667,366.167 219,363.5C 220.667,364.5 222.333,365.5 224,366.5C 227,366.167 230,365.833 233,365.5C 233.667,366.167 234.333,366.833 235,367.5C 236.779,366.521 238.445,366.854 240,368.5C 243.667,368.167 247.333,367.833 251,367.5C 251.667,368.167 252.333,368.833 253,369.5C 254.628,368.903 256.295,369.237 258,370.5C 261,370.167 264,369.833 267,369.5C 270,370.5 273,371.5 276,372.5C 278.333,372.167 280.667,371.833 283,371.5C 283.667,372.167 284.333,372.833 285,373.5C 286.583,373.507 288.249,373.174 290,372.5C 290.667,373.167 291.333,373.833 292,374.5C 295,374.167 298,373.833 301,373.5C 301.667,374.167 302.333,374.833 303,375.5C 304.626,375.146 306.459,375.146 308.5,375.5C 269.059,393.847 229.393,394.014 189.5,376C 179.244,371.052 169.91,364.885 161.5,357.5 Z"/></g>
</svg>
