<?xml version="1.0" encoding="UTF-8"?>
<!DOCTYPE svg PUBLIC "-//W3C//DTD SVG 1.1//EN" "http://www.w3.org/Graphics/SVG/1.1/DTD/svg11.dtd">
<svg xmlns="http://www.w3.org/2000/svg" version="1.1" width="500px" height="500px" style="shape-rendering:geometricPrecision; text-rendering:geometricPrecision; image-rendering:optimizeQuality; fill-rule:evenodd; clip-rule:evenodd" xmlns:xlink="http://www.w3.org/1999/xlink">
<g><path style="opacity:1" fill="#5e17eb" d="M -0.5,-0.5 C 166.167,-0.5 332.833,-0.5 499.5,-0.5C 499.5,166.167 499.5,332.833 499.5,499.5C 332.833,499.5 166.167,499.5 -0.5,499.5C -0.5,332.833 -0.5,166.167 -0.5,-0.5 Z"/></g>
<g><path style="opacity:1" fill="#aed5eb" d="M 234.5,92.5 C 262.965,89.8078 290.299,94.4745 316.5,106.5C 315.833,108.167 315.167,109.833 314.5,111.5C 295.685,103.47 276.019,99.1363 255.5,98.5C 254.294,97.1196 254.627,95.9529 256.5,95C 255.91,93.7011 254.91,92.8678 253.5,92.5C 247.268,92.6913 240.935,92.6913 234.5,92.5 Z"/></g>
<g><path style="opacity:1" fill="#bae5e4" d="M 234.5,92.5 C 240.935,92.6913 247.268,92.6913 253.5,92.5C 254.91,92.8678 255.91,93.7011 256.5,95C 254.627,95.9529 254.294,97.1196 255.5,98.5C 236.883,98.6238 218.883,101.957 201.5,108.5C 201.407,106.595 201.074,104.762 200.5,103C 201.5,102 202.5,101 203.5,100C 202.906,99.5357 202.239,99.369 201.5,99.5C 212.002,95.3559 223.002,93.0225 234.5,92.5 Z"/></g>
<g><path style="opacity:1" fill="#6223eb" d="M 255.5,98.5 C 276.019,99.1363 295.685,103.47 314.5,111.5C 347.67,127.005 371.337,151.671 385.5,185.5C 407.341,244.772 398.175,298.772 358,347.5C 344.673,362.049 329.507,374.049 312.5,383.5C 289.458,394.677 265.125,400.01 239.5,399.5C 222.497,399.278 206.163,395.945 190.5,389.5C 168.462,380.794 150.129,367.128 135.5,348.5C 136.212,346.954 137.378,345.954 139,345.5C 145.133,351.964 151.633,358.131 158.5,364C 161.691,366.426 165.025,368.593 168.5,370.5C 193.605,388.113 221.605,395.78 252.5,393.5C 281.258,391.477 306.925,381.811 329.5,364.5C 334.554,361.626 339.22,358.126 343.5,354C 347.416,350.59 350.749,346.757 353.5,342.5C 370.266,324.306 381.266,302.972 386.5,278.5C 387.167,278.5 387.5,278.167 387.5,277.5C 392.737,254.107 392.571,230.774 387,207.5C 385.293,200.44 382.793,193.773 379.5,187.5C 366.057,155.722 343.723,132.389 312.5,117.5C 296.305,110.202 279.305,106.202 261.5,105.5C 227.26,103.728 196.593,113.395 169.5,134.5C 167.251,135.08 165.585,136.413 164.5,138.5C 162.251,139.08 160.585,140.413 159.5,142.5C 150.077,149.255 142.41,157.588 136.5,167.5C 129.988,175.178 124.988,183.844 121.5,193.5C 118.262,199.868 115.596,206.534 113.5,213.5C 112.358,217.071 111.691,220.738 111.5,224.5C 110.662,224.842 110.328,225.508 110.5,226.5C 109.462,231.436 108.795,236.436 108.5,241.5C 106.725,265.192 110.059,288.192 118.5,310.5C 115.968,314.521 113.802,314.188 112,309.5C 108.355,299.238 105.521,288.905 103.5,278.5C 97.3816,229.536 110.382,186.536 142.5,149.5C 159.272,131.618 178.939,117.952 201.5,108.5C 218.883,101.957 236.883,98.6238 255.5,98.5 Z"/></g>
<g><path style="opacity:1" fill="#b7dae4" d="M 261.5,105.5 C 260.859,106.482 260.193,107.482 259.5,108.5C 253.346,109.167 247.346,109.833 241.5,110.5C 224.259,110.981 207.926,114.981 192.5,122.5C 184.676,126.245 177.009,130.245 169.5,134.5C 196.593,113.395 227.26,103.728 261.5,105.5 Z"/></g>
<g><path style="opacity:1" fill="#aed4ec" d="M 261.5,105.5 C 279.305,106.202 296.305,110.202 312.5,117.5C 313.073,120.123 313.073,122.456 312.5,124.5C 289.999,114.2 266.333,109.533 241.5,110.5C 247.346,109.833 253.346,109.167 259.5,108.5C 260.193,107.482 260.859,106.482 261.5,105.5 Z"/></g>
<g><path style="opacity:1" fill="#c2f0de" d="M 201.5,99.5 C 202.239,99.369 202.906,99.5357 203.5,100C 202.5,101 201.5,102 200.5,103C 201.074,104.762 201.407,106.595 201.5,108.5C 178.939,117.952 159.272,131.618 142.5,149.5C 142.736,146.618 142.736,143.784 142.5,141C 144.564,139.982 144.898,138.649 143.5,137C 143.759,135.739 144.426,134.739 145.5,134C 144.552,133.517 143.552,133.351 142.5,133.5C 159.194,117.31 178.86,105.977 201.5,99.5 Z"/></g>
<g><path style="opacity:1" fill="#c06be3" d="M 241.5,110.5 C 266.333,109.533 289.999,114.2 312.5,124.5C 320.382,128.718 327.715,133.718 334.5,139.5C 331.997,140.118 329.497,140.451 327,140.5C 323.505,139.853 319.838,138.853 316,137.5C 313.667,137.833 311.333,138.167 309,138.5C 303.818,136.08 299.151,135.414 295,136.5C 290.667,135.5 286.333,134.5 282,133.5C 278.229,134.097 274.229,134.097 270,133.5C 269.333,132.833 268.667,132.167 268,131.5C 265,131.833 262,132.167 259,132.5C 256,131.5 253,130.5 250,129.5C 244.826,130.697 238.826,130.031 232,127.5C 228.229,128.097 224.229,128.097 220,127.5C 218.667,126.833 217.333,126.167 216,125.5C 211.843,125.816 207.177,125.816 202,125.5C 201.333,124.833 200.667,124.167 200,123.5C 197.667,123.833 195.333,124.167 193,124.5C 192.536,123.906 192.369,123.239 192.5,122.5C 207.926,114.981 224.259,110.981 241.5,110.5 Z"/></g>
<g><path style="opacity:1" fill="#b8c2e0" d="M 169.5,134.5 C 168.415,136.587 166.749,137.92 164.5,138.5C 165.585,136.413 167.251,135.08 169.5,134.5 Z"/></g>
<g><path style="opacity:1" fill="#ac67dd" d="M 192.5,122.5 C 192.369,123.239 192.536,123.906 193,124.5C 195.333,124.167 197.667,123.833 200,123.5C 200.667,124.167 201.333,124.833 202,125.5C 207.177,125.816 211.843,125.816 216,125.5C 217.333,126.167 218.667,126.833 220,127.5C 224.229,128.097 228.229,128.097 232,127.5C 238.826,130.031 244.826,130.697 250,129.5C 253,130.5 256,131.5 259,132.5C 262,132.167 265,131.833 268,131.5C 268.667,132.167 269.333,132.833 270,133.5C 274.229,134.097 278.229,134.097 282,133.5C 286.333,134.5 290.667,135.5 295,136.5C 299.151,135.414 303.818,136.08 309,138.5C 311.333,138.167 313.667,137.833 316,137.5C 319.838,138.853 323.505,139.853 327,140.5C 329.497,140.451 331.997,140.118 334.5,139.5C 349.025,150.357 360.692,163.69 369.5,179.5C 366.114,179.747 362.614,180.081 359,180.5C 357.295,178.023 355.295,176.689 353,176.5C 350.837,177.668 348.837,178.335 347,178.5C 346,177.5 345,176.5 344,175.5C 337.398,175.311 331.064,175.645 325,176.5C 324,175.5 323,174.5 322,173.5C 318.052,173.303 314.386,173.636 311,174.5C 310,173.5 309,172.5 308,171.5C 302.873,171.458 297.873,171.791 293,172.5C 292,171.5 291,170.5 290,169.5C 284.727,169.308 279.727,169.641 275,170.5C 274,169.5 273,168.5 272,167.5C 267.429,168.322 263.096,168.656 259,168.5C 257.295,166.023 255.295,164.689 253,164.5C 251.667,165.167 250.333,165.833 249,166.5C 247,165.167 245,165.167 243,166.5C 242,165.5 241,164.5 240,163.5C 234.519,163.399 229.519,163.732 225,164.5C 224,163.5 223,162.5 222,161.5C 219.524,161.453 217.191,161.786 215,162.5C 214,161.5 213,160.5 212,159.5C 205.936,160.355 199.602,160.689 193,160.5C 192,159.5 191,158.5 190,157.5C 188.221,158.479 186.555,158.146 185,156.5C 183.667,157.167 182.333,157.833 181,158.5C 179,157.167 177,157.167 175,158.5C 174,157.5 173,156.5 172,155.5C 167.429,156.322 163.096,156.656 159,156.5C 158,155.5 157,154.5 156,153.5C 154.333,153.833 152.667,154.167 151,154.5C 150.5,154 150,153.5 149.5,153C 153.037,149.631 156.371,146.131 159.5,142.5C 160.585,140.413 162.251,139.08 164.5,138.5C 166.749,137.92 168.415,136.587 169.5,134.5C 177.009,130.245 184.676,126.245 192.5,122.5 Z"/></g>
<g><path style="opacity:1" fill="#9ec2f6" d="M 316.5,106.5 C 349.076,121.743 373.409,145.41 389.5,177.5C 387.656,179.514 386.989,181.681 387.5,184C 386.956,184.717 386.289,185.217 385.5,185.5C 371.337,151.671 347.67,127.005 314.5,111.5C 315.167,109.833 315.833,108.167 316.5,106.5 Z"/></g>
<g><path style="opacity:1" fill="#c9f8d9" d="M 142.5,133.5 C 143.552,133.351 144.552,133.517 145.5,134C 144.426,134.739 143.759,135.739 143.5,137C 144.898,138.649 144.564,139.982 142.5,141C 142.736,143.784 142.736,146.618 142.5,149.5C 110.382,186.536 97.3816,229.536 103.5,278.5C 103.047,279.458 102.381,280.292 101.5,281C 101.833,283.333 102.167,285.667 102.5,288C 100.606,289.101 99.9394,290.434 100.5,292C 99.552,292.483 98.552,292.649 97.5,292.5C 85.5976,247.187 91.7642,204.521 116,164.5C 123.574,153.092 132.408,142.759 142.5,133.5 Z"/></g>
<g><path style="opacity:1" fill="#9b64d8" d="M 159.5,142.5 C 156.371,146.131 153.037,149.631 149.5,153C 150,153.5 150.5,154 151,154.5C 152.667,154.167 154.333,153.833 156,153.5C 157,154.5 158,155.5 159,156.5C 163.096,156.656 167.429,156.322 172,155.5C 173,156.5 174,157.5 175,158.5C 177,157.167 179,157.167 181,158.5C 182.333,157.833 183.667,157.167 185,156.5C 186.555,158.146 188.221,158.479 190,157.5C 191,158.5 192,159.5 193,160.5C 199.602,160.689 205.936,160.355 212,159.5C 213,160.5 214,161.5 215,162.5C 217.191,161.786 219.524,161.453 222,161.5C 223,162.5 224,163.5 225,164.5C 229.519,163.732 234.519,163.399 240,163.5C 241,164.5 242,165.5 243,166.5C 245,165.167 247,165.167 249,166.5C 250.333,165.833 251.667,165.167 253,164.5C 255.295,164.689 257.295,166.023 259,168.5C 263.096,168.656 267.429,168.322 272,167.5C 273,168.5 274,169.5 275,170.5C 279.727,169.641 284.727,169.308 290,169.5C 291,170.5 292,171.5 293,172.5C 297.873,171.791 302.873,171.458 308,171.5C 309,172.5 310,173.5 311,174.5C 314.386,173.636 318.052,173.303 322,173.5C 323,174.5 324,175.5 325,176.5C 331.064,175.645 337.398,175.311 344,175.5C 345,176.5 346,177.5 347,178.5C 348.837,178.335 350.837,177.668 353,176.5C 355.295,176.689 357.295,178.023 359,180.5C 362.614,180.081 366.114,179.747 369.5,179.5C 372.417,183.666 375.084,187.999 377.5,192.5C 378.829,196.822 380.163,201.155 381.5,205.5C 381.217,206.289 380.717,206.956 380,207.5C 378.667,206.833 377.333,206.167 376,205.5C 372.338,206.566 368.338,206.232 364,204.5C 362.351,205.898 361.018,205.564 360,203.5C 357,203.833 354,204.167 351,204.5C 348.075,203.249 345.075,202.249 342,201.5C 339.667,201.833 337.333,202.167 335,202.5C 333.295,201.237 331.628,200.903 330,201.5C 329.047,199.627 327.88,199.294 326.5,200.5C 327.302,185.172 321.636,182.339 309.5,192C 305.578,195.251 302.412,199.084 300,203.5C 299.906,198.183 300.073,192.849 300.5,187.5C 302.5,176.497 298.166,172.497 287.5,175.5C 288.433,179.429 288.766,183.429 288.5,187.5C 287.883,187.611 287.383,187.944 287,188.5C 284.075,187.249 281.075,186.249 278,185.5C 272.826,186.697 266.826,186.031 260,183.5C 258.333,183.833 256.667,184.167 255,184.5C 251.333,183.5 247.667,182.5 244,181.5C 241.667,181.833 239.333,182.167 237,182.5C 234.075,181.249 231.075,180.249 228,179.5C 225.231,179.354 222.231,179.687 219,180.5C 218.333,179.833 217.667,179.167 217,178.5C 212.529,177.567 208.529,177.567 205,178.5C 201.333,177.5 197.667,176.5 194,175.5C 191.667,175.833 189.333,176.167 187,176.5C 184,175.5 181,174.5 178,173.5C 172.826,174.697 166.826,174.031 160,171.5C 156.471,172.433 152.471,172.433 148,171.5C 146.667,170.833 145.333,170.167 144,169.5C 141.667,169.833 139.333,170.167 137,170.5C 136.517,169.552 136.351,168.552 136.5,167.5C 142.41,157.588 150.077,149.255 159.5,142.5 Z"/></g>
<g><path style="opacity:1" fill="#a0c4f5" d="M 312.5,117.5 C 343.723,132.389 366.057,155.722 379.5,187.5C 379.88,189.698 379.213,191.365 377.5,192.5C 375.084,187.999 372.417,183.666 369.5,179.5C 360.692,163.69 349.025,150.357 334.5,139.5C 327.715,133.718 320.382,128.718 312.5,124.5C 313.073,122.456 313.073,120.123 312.5,117.5 Z"/></g>
<g><path style="opacity:1" fill="#8d62d4" d="M 136.5,167.5 C 136.351,168.552 136.517,169.552 137,170.5C 139.333,170.167 141.667,169.833 144,169.5C 145.333,170.167 146.667,170.833 148,171.5C 152.471,172.433 156.471,172.433 160,171.5C 166.826,174.031 172.826,174.697 178,173.5C 181,174.5 184,175.5 187,176.5C 189.333,176.167 191.667,175.833 194,175.5C 197.667,176.5 201.333,177.5 205,178.5C 208.529,177.567 212.529,177.567 217,178.5C 217.667,179.167 218.333,179.833 219,180.5C 222.231,179.687 225.231,179.354 228,179.5C 231.075,180.249 234.075,181.249 237,182.5C 239.333,182.167 241.667,181.833 244,181.5C 247.667,182.5 251.333,183.5 255,184.5C 256.667,184.167 258.333,183.833 260,183.5C 266.826,186.031 272.826,186.697 278,185.5C 281.075,186.249 284.075,187.249 287,188.5C 287.383,187.944 287.883,187.611 288.5,187.5C 287.809,198.172 286.976,208.839 286,219.5C 283.032,222.602 279.366,223.935 275,223.5C 268.072,223.7 264.072,220.367 263,213.5C 261.574,208.243 262.741,203.743 266.5,200C 270.475,198.621 273.309,199.787 275,203.5C 275.977,205.74 276.477,208.073 276.5,210.5C 286.977,208.562 288.31,203.729 280.5,196C 268.7,190.2 259.033,192.7 251.5,203.5C 245.977,196.467 238.977,194.634 230.5,198C 226.13,199.549 222.463,202.049 219.5,205.5C 219.217,204.711 218.717,204.044 218,203.5C 215.965,204.374 213.632,204.707 211,204.5C 210.147,202.875 209.147,202.542 208,203.5C 206,202.833 204,202.167 202,201.5C 199.441,201.715 196.607,201.715 193.5,201.5C 193.802,204.059 193.468,206.393 192.5,208.5C 192.665,205.15 192.498,201.817 192,198.5C 191.25,197.874 190.416,197.374 189.5,197C 194.723,196.98 199.723,195.98 204.5,194C 207.605,191.156 208.105,187.989 206,184.5C 194.267,186.356 182.434,187.856 170.5,189C 166.434,189.576 163.767,191.743 162.5,195.5C 161.739,196.391 160.739,197.058 159.5,197.5C 156.917,197.019 154.417,196.352 152,195.5C 148.471,196.433 144.471,196.433 140,195.5C 138.667,194.833 137.333,194.167 136,193.5C 131.474,194.561 126.64,194.561 121.5,193.5C 124.988,183.844 129.988,175.178 136.5,167.5 Z"/></g>
<g><path style="opacity:1" fill="#58f4fd" d="M 326.5,200.5 C 323.846,208.737 323.846,217.071 326.5,225.5C 315.654,228.997 310.654,224.997 311.5,213.5C 312.099,208.18 312.432,202.847 312.5,197.5C 308.67,198.485 305.837,200.819 304,204.5C 299.652,210.536 297.985,217.202 299,224.5C 301.107,227.376 300.273,229.043 296.5,229.5C 292.599,230.143 289.266,229.143 286.5,226.5C 274.818,235.147 263.985,234.147 254,223.5C 251.816,220.134 250.483,216.467 250,212.5C 244.287,218.911 237.121,222.577 228.5,223.5C 232.022,228.188 236.689,229.688 242.5,228C 245.759,226.789 248.592,224.956 251,222.5C 250.149,229.364 246.316,233.864 239.5,236C 221.077,238.91 213.243,231.077 216,212.5C 217.18,210.14 218.347,207.807 219.5,205.5C 222.463,202.049 226.13,199.549 230.5,198C 238.977,194.634 245.977,196.467 251.5,203.5C 259.033,192.7 268.7,190.2 280.5,196C 288.31,203.729 286.977,208.562 276.5,210.5C 276.477,208.073 275.977,205.74 275,203.5C 273.309,199.787 270.475,198.621 266.5,200C 262.741,203.743 261.574,208.243 263,213.5C 264.072,220.367 268.072,223.7 275,223.5C 279.366,223.935 283.032,222.602 286,219.5C 286.976,208.839 287.809,198.172 288.5,187.5C 288.766,183.429 288.433,179.429 287.5,175.5C 298.166,172.497 302.5,176.497 300.5,187.5C 300.073,192.849 299.906,198.183 300,203.5C 302.412,199.084 305.578,195.251 309.5,192C 321.636,182.339 327.302,185.172 326.5,200.5 Z"/></g>
<g><path style="opacity:1" fill="#58f4fd" d="M 192.5,208.5 C 191.8,212.798 191.467,217.131 191.5,221.5C 190.415,228.365 190.415,235.198 191.5,242C 187.453,244.073 183.62,243.907 180,241.5C 178.633,237.3 178.133,232.967 178.5,228.5C 179.227,217.837 179.894,207.171 180.5,196.5C 174.918,196.805 169.584,198.138 164.5,200.5C 163.05,199.15 162.383,197.484 162.5,195.5C 163.767,191.743 166.434,189.576 170.5,189C 182.434,187.856 194.267,186.356 206,184.5C 208.105,187.989 207.605,191.156 204.5,194C 199.723,195.98 194.723,196.98 189.5,197C 190.416,197.374 191.25,197.874 192,198.5C 192.498,201.817 192.665,205.15 192.5,208.5 Z"/></g>
<g><path style="opacity:1" fill="#96b5f9" d="M 379.5,187.5 C 382.793,193.773 385.293,200.44 387,207.5C 392.571,230.774 392.737,254.107 387.5,277.5C 386.853,276.726 386.52,275.726 386.5,274.5C 387.25,269.501 387.916,264.501 388.5,259.5C 388.5,252.833 388.5,246.167 388.5,239.5C 387.871,227.697 385.537,216.364 381.5,205.5C 380.163,201.155 378.829,196.822 377.5,192.5C 379.213,191.365 379.88,189.698 379.5,187.5 Z"/></g>
<g><path style="opacity:1" fill="#7f64d2" d="M 233.5,203.5 C 239.496,202.333 241.996,204.666 241,210.5C 237.648,214.26 233.481,216.593 228.5,217.5C 227.006,211.646 228.672,206.979 233.5,203.5 Z"/></g>
<g><path style="opacity:1" fill="#735dcd" d="M 162.5,195.5 C 162.383,197.484 163.05,199.15 164.5,200.5C 169.584,198.138 174.918,196.805 180.5,196.5C 179.894,207.171 179.227,217.837 178.5,228.5C 177.691,230.292 177.191,232.292 177,234.5C 173.118,234.156 168.785,233.156 164,231.5C 160.471,232.433 156.471,232.433 152,231.5C 150.667,230.833 149.333,230.167 148,229.5C 143.59,230.325 138.923,230.325 134,229.5C 133.333,228.833 132.667,228.167 132,227.5C 129,227.833 126,228.167 123,228.5C 120,227.5 117,226.5 114,225.5C 113.148,226.571 112.315,227.571 111.5,228.5C 111.672,227.508 111.338,226.842 110.5,226.5C 110.328,225.508 110.662,224.842 111.5,224.5C 112.881,222.157 113.881,218.991 114.5,215C 114.43,214.235 114.097,213.735 113.5,213.5C 115.596,206.534 118.262,199.868 121.5,193.5C 126.64,194.561 131.474,194.561 136,193.5C 137.333,194.167 138.667,194.833 140,195.5C 144.471,196.433 148.471,196.433 152,195.5C 154.417,196.352 156.917,197.019 159.5,197.5C 160.739,197.058 161.739,196.391 162.5,195.5 Z"/></g>
<g><path style="opacity:1" fill="#9ea5d8" d="M 113.5,213.5 C 114.097,213.735 114.43,214.235 114.5,215C 113.881,218.991 112.881,222.157 111.5,224.5C 111.691,220.738 112.358,217.071 113.5,213.5 Z"/></g>
<g><path style="opacity:1" fill="#8060d1" d="M 326.5,200.5 C 327.88,199.294 329.047,199.627 330,201.5C 331.628,200.903 333.295,201.237 335,202.5C 337.333,202.167 339.667,201.833 342,201.5C 345.075,202.249 348.075,203.249 351,204.5C 354,204.167 357,203.833 360,203.5C 361.018,205.564 362.351,205.898 364,204.5C 368.338,206.232 372.338,206.566 376,205.5C 377.333,206.167 378.667,206.833 380,207.5C 380.717,206.956 381.217,206.289 381.5,205.5C 385.537,216.364 387.871,227.697 388.5,239.5C 383.56,240.434 378.393,240.767 373,240.5C 372,239.5 371,238.5 370,237.5C 366.333,237.833 362.667,238.167 359,238.5C 357.667,235.833 356.333,235.833 355,238.5C 354,237.5 353,236.5 352,235.5C 348.333,235.833 344.667,236.167 341,236.5C 340,235.5 339,234.5 338,233.5C 334.333,233.833 330.667,234.167 327,234.5C 325.667,231.833 324.333,231.833 323,234.5C 321.667,231.833 320.333,231.833 319,234.5C 318,233.5 317,232.5 316,231.5C 312.333,231.833 308.667,232.167 305,232.5C 304,231.5 303,230.5 302,229.5C 299.953,233.446 298.12,233.446 296.5,229.5C 300.273,229.043 301.107,227.376 299,224.5C 297.985,217.202 299.652,210.536 304,204.5C 305.837,200.819 308.67,198.485 312.5,197.5C 312.432,202.847 312.099,208.18 311.5,213.5C 310.654,224.997 315.654,228.997 326.5,225.5C 323.846,217.071 323.846,208.737 326.5,200.5 Z"/></g>
<g><path style="opacity:1" fill="#715dcd" d="M 219.5,205.5 C 218.347,207.807 217.18,210.14 216,212.5C 213.243,231.077 221.077,238.91 239.5,236C 246.316,233.864 250.149,229.364 251,222.5C 248.592,224.956 245.759,226.789 242.5,228C 236.689,229.688 232.022,228.188 228.5,223.5C 237.121,222.577 244.287,218.911 250,212.5C 250.483,216.467 251.816,220.134 254,223.5C 263.985,234.147 274.818,235.147 286.5,226.5C 289.266,229.143 292.599,230.143 296.5,229.5C 298.12,233.446 299.953,233.446 302,229.5C 303,230.5 304,231.5 305,232.5C 308.667,232.167 312.333,231.833 316,231.5C 317,232.5 318,233.5 319,234.5C 320.333,231.833 321.667,231.833 323,234.5C 324.333,231.833 325.667,231.833 327,234.5C 330.667,234.167 334.333,233.833 338,233.5C 339,234.5 340,235.5 341,236.5C 344.667,236.167 348.333,235.833 352,235.5C 353,236.5 354,237.5 355,238.5C 356.333,235.833 357.667,235.833 359,238.5C 362.667,238.167 366.333,237.833 370,237.5C 371,238.5 372,239.5 373,240.5C 378.393,240.767 383.56,240.434 388.5,239.5C 388.5,246.167 388.5,252.833 388.5,259.5C 386.321,258.897 384.154,258.23 382,257.5C 379.667,257.833 377.333,258.167 375,258.5C 371.505,257.853 367.838,256.853 364,255.5C 362.333,255.833 360.667,256.167 359,256.5C 357.667,255.833 356.333,255.167 355,254.5C 353.221,255.479 351.555,255.146 350,253.5C 347,253.833 344,254.167 341,254.5C 335.818,252.08 331.151,251.414 327,252.5C 322.667,251.5 318.333,250.5 314,249.5C 312.333,249.833 310.667,250.167 309,250.5C 307.667,249.833 306.333,249.167 305,248.5C 303.221,249.479 301.555,249.146 300,247.5C 297,247.833 294,248.167 291,248.5C 288,247.5 285,246.5 282,245.5C 276.826,246.697 270.826,246.031 264,243.5C 260.471,244.433 256.471,244.433 252,243.5C 250.667,242.833 249.333,242.167 248,241.5C 245.667,241.833 243.333,242.167 241,242.5C 238,241.5 235,240.5 232,239.5C 229,239.833 226,240.167 223,240.5C 217.818,238.08 213.151,237.414 209,238.5C 207.667,237.833 206.333,237.167 205,236.5C 201,236.5 197,236.5 193,236.5C 191.558,231.691 191.058,226.691 191.5,221.5C 191.467,217.131 191.8,212.798 192.5,208.5C 193.468,206.393 193.802,204.059 193.5,201.5C 196.607,201.715 199.441,201.715 202,201.5C 204,202.167 206,202.833 208,203.5C 209.147,202.542 210.147,202.875 211,204.5C 213.632,204.707 215.965,204.374 218,203.5C 218.717,204.044 219.217,204.711 219.5,205.5 Z"/></g>
<g><path style="opacity:1" fill="#635bc9" d="M 191.5,221.5 C 191.058,226.691 191.558,231.691 193,236.5C 197,236.5 201,236.5 205,236.5C 206.333,237.167 207.667,237.833 209,238.5C 213.151,237.414 217.818,238.08 223,240.5C 226,240.167 229,239.833 232,239.5C 235,240.5 238,241.5 241,242.5C 243.333,242.167 245.667,241.833 248,241.5C 249.333,242.167 250.667,242.833 252,243.5C 256.471,244.433 260.471,244.433 264,243.5C 270.826,246.031 276.826,246.697 282,245.5C 285,246.5 288,247.5 291,248.5C 294,248.167 297,247.833 300,247.5C 301.555,249.146 303.221,249.479 305,248.5C 306.333,249.167 307.667,249.833 309,250.5C 310.667,250.167 312.333,249.833 314,249.5C 318.333,250.5 322.667,251.5 327,252.5C 331.151,251.414 335.818,252.08 341,254.5C 344,254.167 347,253.833 350,253.5C 351.555,255.146 353.221,255.479 355,254.5C 356.333,255.167 357.667,255.833 359,256.5C 360.667,256.167 362.333,255.833 364,255.5C 367.838,256.853 371.505,257.853 375,258.5C 377.333,258.167 379.667,257.833 382,257.5C 384.154,258.23 386.321,258.897 388.5,259.5C 387.916,264.501 387.25,269.501 386.5,274.5C 386.52,275.726 386.853,276.726 387.5,277.5C 387.5,278.167 387.167,278.5 386.5,278.5C 385.262,280.214 384.595,282.214 384.5,284.5C 379.878,283.743 375.378,283.743 371,284.5C 370.333,283.833 369.667,283.167 369,282.5C 364.529,281.567 360.529,281.567 357,282.5C 355.667,281.833 354.333,281.167 353,280.5C 348.077,279.675 343.41,279.675 339,280.5C 336,279.5 333,278.5 330,277.5C 327.885,278.598 325.718,278.598 323.5,277.5C 322.842,265.336 316.509,259.836 304.5,261C 301,263.167 298.167,266 296,269.5C 295.208,263.76 291.875,261.093 286,261.5C 284.319,261.608 283.152,262.275 282.5,263.5C 278.926,264.386 275.092,264.719 271,264.5C 269.559,263.13 267.892,262.13 266,261.5C 263,261.833 260,262.167 257,262.5C 254.075,261.249 251.075,260.249 248,259.5C 245.231,259.354 242.231,259.687 239,260.5C 238.147,258.875 237.147,258.542 236,259.5C 234.667,258.833 233.333,258.167 232,257.5C 228.333,257.833 224.667,258.167 221,258.5C 219.333,257.5 217.667,256.5 216,255.5C 211.904,255.344 207.571,255.678 203,256.5C 201.559,255.13 199.892,254.13 198,253.5C 195,253.833 192,254.167 189,254.5C 186.075,253.249 183.075,252.249 180,251.5C 177.231,251.354 174.231,251.687 171,252.5C 170.147,250.875 169.147,250.542 168,251.5C 166.667,250.833 165.333,250.167 164,249.5C 160.338,250.566 156.338,250.232 152,248.5C 150.351,249.898 149.018,249.564 148,247.5C 145,247.833 142,248.167 139,248.5C 136.075,247.249 133.075,246.249 130,245.5C 127,245.833 124,246.167 121,246.5C 119.333,245.5 117.667,244.5 116,243.5C 114.081,244.074 112.247,244.407 110.5,244.5C 110.569,239.146 110.902,233.813 111.5,228.5C 112.315,227.571 113.148,226.571 114,225.5C 117,226.5 120,227.5 123,228.5C 126,228.167 129,227.833 132,227.5C 132.667,228.167 133.333,228.833 134,229.5C 138.923,230.325 143.59,230.325 148,229.5C 149.333,230.167 150.667,230.833 152,231.5C 156.471,232.433 160.471,232.433 164,231.5C 168.785,233.156 173.118,234.156 177,234.5C 177.191,232.292 177.691,230.292 178.5,228.5C 178.133,232.967 178.633,237.3 180,241.5C 183.62,243.907 187.453,244.073 191.5,242C 190.415,235.198 190.415,228.365 191.5,221.5 Z"/></g>
<g><path style="opacity:1" fill="#aeccd8" d="M 110.5,226.5 C 111.338,226.842 111.672,227.508 111.5,228.5C 110.902,233.813 110.569,239.146 110.5,244.5C 110.5,249.833 110.5,255.167 110.5,260.5C 110.5,260.833 110.5,261.167 110.5,261.5C 109.833,254.833 109.167,248.167 108.5,241.5C 108.795,236.436 109.462,231.436 110.5,226.5 Z"/></g>
<g><path style="opacity:1" fill="#575ac5" d="M 282.5,263.5 C 283.492,270.982 283.825,278.648 283.5,286.5C 283.167,286.5 282.833,286.5 282.5,286.5C 282.644,270.591 274.977,264.091 259.5,267C 250.808,269.855 245.475,275.688 243.5,284.5C 242.698,285.952 242.198,287.618 242,289.5C 241.51,288.207 241.343,286.873 241.5,285.5C 241.666,281.154 241.499,276.821 241,272.5C 236.508,268.595 232.008,268.761 227.5,273C 223.094,276.651 219.26,280.817 216,285.5C 215.667,277.833 215.333,270.167 215,262.5C 214.89,260.152 213.723,258.652 211.5,258C 208.446,257.179 205.446,257.345 202.5,258.5C 203.952,270.196 203.619,281.863 201.5,293.5C 195.711,288.096 189.044,283.93 181.5,281C 175.887,277.626 175.221,273.626 179.5,269C 182.964,268.183 186.298,268.517 189.5,270C 191.607,271.264 192.607,273.097 192.5,275.5C 199.214,275.95 202.38,272.95 202,266.5C 201.07,264.448 199.57,262.948 197.5,262C 185.217,258.348 174.217,260.515 164.5,268.5C 162.7,266.95 160.533,265.95 158,265.5C 157,265.833 156,266.167 155,266.5C 151.333,265.5 147.667,264.5 144,263.5C 141.076,264.01 138.41,264.01 136,263.5C 134.417,265.993 132.917,265.826 131.5,263C 129.567,262.749 127.734,262.249 126,261.5C 123.667,261.833 121.333,262.167 119,262.5C 116.262,261.518 113.428,260.852 110.5,260.5C 110.5,255.167 110.5,249.833 110.5,244.5C 112.247,244.407 114.081,244.074 116,243.5C 117.667,244.5 119.333,245.5 121,246.5C 124,246.167 127,245.833 130,245.5C 133.075,246.249 136.075,247.249 139,248.5C 142,248.167 145,247.833 148,247.5C 149.018,249.564 150.351,249.898 152,248.5C 156.338,250.232 160.338,250.566 164,249.5C 165.333,250.167 166.667,250.833 168,251.5C 169.147,250.542 170.147,250.875 171,252.5C 174.231,251.687 177.231,251.354 180,251.5C 183.075,252.249 186.075,253.249 189,254.5C 192,254.167 195,253.833 198,253.5C 199.892,254.13 201.559,255.13 203,256.5C 207.571,255.678 211.904,255.344 216,255.5C 217.667,256.5 219.333,257.5 221,258.5C 224.667,258.167 228.333,257.833 232,257.5C 233.333,258.167 234.667,258.833 236,259.5C 237.147,258.542 238.147,258.875 239,260.5C 242.231,259.687 245.231,259.354 248,259.5C 251.075,260.249 254.075,261.249 257,262.5C 260,262.167 263,261.833 266,261.5C 267.892,262.13 269.559,263.13 271,264.5C 275.092,264.719 278.926,264.386 282.5,263.5 Z"/></g>
<g><path style="opacity:1" fill="#55f4fd" d="M 241.5,285.5 C 240.203,292.525 240.203,299.692 241.5,307C 241.095,307.945 240.428,308.612 239.5,309C 236.5,309.667 233.5,309.667 230.5,309C 229.107,307.829 228.273,306.329 228,304.5C 227.5,296.507 227.334,288.507 227.5,280.5C 225.097,280.393 223.264,281.393 222,283.5C 219.412,287.674 217.079,292.007 215,296.5C 214.635,301.672 214.469,306.672 214.5,311.5C 211.227,312.585 207.894,312.752 204.5,312C 203.382,310.926 202.382,309.76 201.5,308.5C 193.333,315.043 184,317.543 173.5,316C 169.138,314.628 165.638,312.128 163,308.5C 162.483,301.146 165.983,297.979 173.5,299C 175.244,306.37 179.577,308.703 186.5,306C 190.463,302.117 190.13,298.451 185.5,295C 177.201,292.688 170.034,288.521 164,282.5C 160.658,277.71 160.825,273.043 164.5,268.5C 174.217,260.515 185.217,258.348 197.5,262C 199.57,262.948 201.07,264.448 202,266.5C 202.38,272.95 199.214,275.95 192.5,275.5C 192.607,273.097 191.607,271.264 189.5,270C 186.298,268.517 182.964,268.183 179.5,269C 175.221,273.626 175.887,277.626 181.5,281C 189.044,283.93 195.711,288.096 201.5,293.5C 203.619,281.863 203.952,270.196 202.5,258.5C 205.446,257.345 208.446,257.179 211.5,258C 213.723,258.652 214.89,260.152 215,262.5C 215.333,270.167 215.667,277.833 216,285.5C 219.26,280.817 223.094,276.651 227.5,273C 232.008,268.761 236.508,268.595 241,272.5C 241.499,276.821 241.666,281.154 241.5,285.5 Z"/></g>
<g><path style="opacity:1" fill="#56f3fd" d="M 323.5,277.5 C 323.788,288.683 318.788,296.183 308.5,300C 302.285,301.559 297.952,299.393 295.5,293.5C 294.301,301.506 294.301,309.506 295.5,317.5C 292.201,318.376 288.868,318.543 285.5,318C 283.951,316.786 282.785,315.286 282,313.5C 281.372,304.422 281.872,295.422 283.5,286.5C 283.825,278.648 283.492,270.982 282.5,263.5C 283.152,262.275 284.319,261.608 286,261.5C 291.875,261.093 295.208,263.76 296,269.5C 298.167,266 301,263.167 304.5,261C 316.509,259.836 322.842,265.336 323.5,277.5 Z"/></g>
<g><path style="opacity:1" fill="#56f3fd" d="M 282.5,286.5 C 277.922,301.292 267.922,307.792 252.5,306C 244.45,301.054 241.45,293.888 243.5,284.5C 245.475,275.688 250.808,269.855 259.5,267C 274.977,264.091 282.644,270.591 282.5,286.5 Z"/></g>
<g><path style="opacity:1" fill="#535ac5" d="M 302.5,267.5 C 304.792,267.244 306.959,267.577 309,268.5C 312.474,275.967 312.141,283.301 308,290.5C 304.146,295.757 300.479,295.757 297,290.5C 296.333,285.5 296.333,280.5 297,275.5C 298.273,272.403 300.107,269.736 302.5,267.5 Z"/></g>
<g><path style="opacity:1" fill="#4d5ac3" d="M 261.5,272.5 C 268.147,272.657 271.147,276.157 270.5,283C 270.289,289.31 267.956,294.644 263.5,299C 261.231,299.758 259.064,299.591 257,298.5C 252.67,288.774 254.17,280.108 261.5,272.5 Z"/></g>
<g><path style="opacity:1" fill="#c1eedd" d="M 108.5,241.5 C 109.167,248.167 109.833,254.833 110.5,261.5C 112.236,280.366 117.57,298.033 126.5,314.5C 128.9,319.632 131.566,324.632 134.5,329.5C 134.244,331.792 134.577,333.959 135.5,336C 132.208,339.11 131.542,342.443 133.5,346C 132.5,347 131.5,348 130.5,349C 130.833,350 131.167,351 131.5,352C 130.906,352.464 130.239,352.631 129.5,352.5C 114.66,334.824 103.993,314.824 97.5,292.5C 98.552,292.649 99.552,292.483 100.5,292C 99.9394,290.434 100.606,289.101 102.5,288C 102.167,285.667 101.833,283.333 101.5,281C 102.381,280.292 103.047,279.458 103.5,278.5C 105.521,288.905 108.355,299.238 112,309.5C 113.802,314.188 115.968,314.521 118.5,310.5C 110.059,288.192 106.725,265.192 108.5,241.5 Z"/></g>
<g><path style="opacity:1" fill="#97bbfb" d="M 389.5,177.5 C 411.023,220.023 413.189,263.69 396,308.5C 379.798,347.867 352.298,376.201 313.5,393.5C 312.215,391.194 312.882,389.361 315.5,388C 315.5,386.667 315.5,385.333 315.5,384C 314.552,383.517 313.552,383.351 312.5,383.5C 329.507,374.049 344.673,362.049 358,347.5C 398.175,298.772 407.341,244.772 385.5,185.5C 386.289,185.217 386.956,184.717 387.5,184C 386.989,181.681 387.656,179.514 389.5,177.5 Z"/></g>
<g><path style="opacity:1" fill="#3c55be" d="M 110.5,260.5 C 113.428,260.852 116.262,261.518 119,262.5C 121.333,262.167 123.667,261.833 126,261.5C 127.734,262.249 129.567,262.749 131.5,263C 132.917,265.826 134.417,265.993 136,263.5C 138.41,264.01 141.076,264.01 144,263.5C 147.667,264.5 151.333,265.5 155,266.5C 156,266.167 157,265.833 158,265.5C 160.533,265.95 162.7,266.95 164.5,268.5C 160.825,273.043 160.658,277.71 164,282.5C 170.034,288.521 177.201,292.688 185.5,295C 190.13,298.451 190.463,302.117 186.5,306C 179.577,308.703 175.244,306.37 173.5,299C 165.983,297.979 162.483,301.146 163,308.5C 165.638,312.128 169.138,314.628 173.5,316C 184,317.543 193.333,315.043 201.5,308.5C 202.382,309.76 203.382,310.926 204.5,312C 207.894,312.752 211.227,312.585 214.5,311.5C 214.469,306.672 214.635,301.672 215,296.5C 217.079,292.007 219.412,287.674 222,283.5C 223.264,281.393 225.097,280.393 227.5,280.5C 227.334,288.507 227.5,296.507 228,304.5C 228.273,306.329 229.107,307.829 230.5,309C 233.5,309.667 236.5,309.667 239.5,309C 240.428,308.612 241.095,307.945 241.5,307C 240.203,299.692 240.203,292.525 241.5,285.5C 241.343,286.873 241.51,288.207 242,289.5C 242.198,287.618 242.698,285.952 243.5,284.5C 241.45,293.888 244.45,301.054 252.5,306C 267.922,307.792 277.922,301.292 282.5,286.5C 282.833,286.5 283.167,286.5 283.5,286.5C 281.872,295.422 281.372,304.422 282,313.5C 282.785,315.286 283.951,316.786 285.5,318C 288.868,318.543 292.201,318.376 295.5,317.5C 294.301,309.506 294.301,301.506 295.5,293.5C 297.952,299.393 302.285,301.559 308.5,300C 318.788,296.183 323.788,288.683 323.5,277.5C 325.718,278.598 327.885,278.598 330,277.5C 333,278.5 336,279.5 339,280.5C 343.41,279.675 348.077,279.675 353,280.5C 354.333,281.167 355.667,281.833 357,282.5C 360.529,281.567 364.529,281.567 369,282.5C 369.667,283.167 370.333,283.833 371,284.5C 375.378,283.743 379.878,283.743 384.5,284.5C 384.595,282.214 385.262,280.214 386.5,278.5C 381.266,302.972 370.266,324.306 353.5,342.5C 353.539,341.244 353.039,340.244 352,339.5C 351,339.833 350,340.167 349,340.5C 348,339.5 347,338.5 346,337.5C 341.523,338.182 336.523,338.515 331,338.5C 329.667,335.833 328.333,335.833 327,338.5C 326,337.5 325,336.5 324,335.5C 321.965,336.374 319.632,336.707 317,336.5C 314.903,335.009 312.57,334.009 310,333.5C 305,333.833 300,334.167 295,334.5C 294,333.5 293,332.5 292,331.5C 289.667,331.833 287.333,332.167 285,332.5C 282.667,331.5 280.333,330.5 278,329.5C 273,329.833 268,330.167 263,330.5C 262,329.5 261,328.5 260,327.5C 256.614,328.364 252.948,328.697 249,328.5C 248,327.5 247,326.5 246,325.5C 241.273,326.359 236.273,326.692 231,326.5C 229.667,323.833 228.333,323.833 227,326.5C 226,325.5 225,324.5 224,323.5C 220.537,323.259 216.871,323.593 213,324.5C 212,323.5 211,322.5 210,321.5C 205.523,322.182 200.523,322.515 195,322.5C 193.667,319.833 192.333,319.833 191,322.5C 190,321.5 189,320.5 188,319.5C 185.965,320.374 183.632,320.707 181,320.5C 180,319.5 179,318.5 178,317.5C 173.523,318.182 168.523,318.515 163,318.5C 162,317.5 161,316.5 160,315.5C 156.052,315.303 152.386,315.636 149,316.5C 146.903,315.009 144.57,314.009 142,313.5C 138.537,313.259 134.871,313.593 131,314.5C 129.568,312.069 128.068,312.069 126.5,314.5C 117.57,298.033 112.236,280.366 110.5,261.5C 110.5,261.167 110.5,260.833 110.5,260.5 Z"/></g>
<g><path style="opacity:1" fill="#56f4fd" d="M 332.5,283.5 C 339.737,282.586 343.237,285.586 343,292.5C 342.535,293.931 341.701,295.097 340.5,296C 329.417,297.094 326.75,292.928 332.5,283.5 Z"/></g>
<g><path style="opacity:1" fill="#2450b7" d="M 353.5,342.5 C 350.749,346.757 347.416,350.59 343.5,354C 339.22,358.126 334.554,361.626 329.5,364.5C 327.938,364.733 326.605,365.4 325.5,366.5C 325.631,365.761 325.464,365.094 325,364.5C 323.221,365.479 321.555,365.146 320,363.5C 317,363.833 314,364.167 311,364.5C 308.075,363.249 305.075,362.249 302,361.5C 296.826,362.697 290.826,362.031 284,359.5C 280.229,360.097 276.229,360.097 272,359.5C 270.667,358.833 269.333,358.167 268,357.5C 265.667,357.833 263.333,358.167 261,358.5C 258.075,357.249 255.075,356.249 252,355.5C 249.231,355.354 246.231,355.687 243,356.5C 242.147,354.875 241.147,354.542 240,355.5C 238,354.833 236,354.167 234,353.5C 232.333,353.833 230.667,354.167 229,354.5C 225.333,353.5 221.667,352.5 218,351.5C 215.667,351.833 213.333,352.167 211,352.5C 208,351.5 205,350.5 202,349.5C 196.826,350.697 190.826,350.031 184,347.5C 182.333,347.833 180.667,348.167 179,348.5C 175.162,347.147 171.495,346.147 168,345.5C 165.667,345.833 163.333,346.167 161,346.5C 159.667,345.833 158.333,345.167 157,344.5C 155.221,345.479 153.555,345.146 152,343.5C 150.34,344.166 148.506,344.166 146.5,343.5C 142.126,339.128 138.126,334.461 134.5,329.5C 131.566,324.632 128.9,319.632 126.5,314.5C 128.068,312.069 129.568,312.069 131,314.5C 134.871,313.593 138.537,313.259 142,313.5C 144.57,314.009 146.903,315.009 149,316.5C 152.386,315.636 156.052,315.303 160,315.5C 161,316.5 162,317.5 163,318.5C 168.523,318.515 173.523,318.182 178,317.5C 179,318.5 180,319.5 181,320.5C 183.632,320.707 185.965,320.374 188,319.5C 189,320.5 190,321.5 191,322.5C 192.333,319.833 193.667,319.833 195,322.5C 200.523,322.515 205.523,322.182 210,321.5C 211,322.5 212,323.5 213,324.5C 216.871,323.593 220.537,323.259 224,323.5C 225,324.5 226,325.5 227,326.5C 228.333,323.833 229.667,323.833 231,326.5C 236.273,326.692 241.273,326.359 246,325.5C 247,326.5 248,327.5 249,328.5C 252.948,328.697 256.614,328.364 260,327.5C 261,328.5 262,329.5 263,330.5C 268,330.167 273,329.833 278,329.5C 280.333,330.5 282.667,331.5 285,332.5C 287.333,332.167 289.667,331.833 292,331.5C 293,332.5 294,333.5 295,334.5C 300,334.167 305,333.833 310,333.5C 312.57,334.009 314.903,335.009 317,336.5C 319.632,336.707 321.965,336.374 324,335.5C 325,336.5 326,337.5 327,338.5C 328.333,335.833 329.667,335.833 331,338.5C 336.523,338.515 341.523,338.182 346,337.5C 347,338.5 348,339.5 349,340.5C 350,340.167 351,339.833 352,339.5C 353.039,340.244 353.539,341.244 353.5,342.5 Z"/></g>
<g><path style="opacity:1" fill="#bae6e2" d="M 134.5,329.5 C 138.126,334.461 142.126,339.128 146.5,343.5C 153.896,352.01 162.229,359.344 171.5,365.5C 170.402,366.397 170.402,367.23 171.5,368C 170.627,369.045 169.627,369.878 168.5,370.5C 165.025,368.593 161.691,366.426 158.5,364C 151.633,358.131 145.133,351.964 139,345.5C 137.378,345.954 136.212,346.954 135.5,348.5C 150.129,367.128 168.462,380.794 190.5,389.5C 191.773,392.271 190.773,393.938 187.5,394.5C 164.655,385.405 145.322,371.405 129.5,352.5C 130.239,352.631 130.906,352.464 131.5,352C 131.167,351 130.833,350 130.5,349C 131.5,348 132.5,347 133.5,346C 131.542,342.443 132.208,339.11 135.5,336C 134.577,333.959 134.244,331.792 134.5,329.5 Z"/></g>
<g><path style="opacity:1" fill="#104cb1" d="M 146.5,343.5 C 148.506,344.166 150.34,344.166 152,343.5C 153.555,345.146 155.221,345.479 157,344.5C 158.333,345.167 159.667,345.833 161,346.5C 163.333,346.167 165.667,345.833 168,345.5C 171.495,346.147 175.162,347.147 179,348.5C 180.667,348.167 182.333,347.833 184,347.5C 190.826,350.031 196.826,350.697 202,349.5C 205,350.5 208,351.5 211,352.5C 213.333,352.167 215.667,351.833 218,351.5C 221.667,352.5 225.333,353.5 229,354.5C 230.667,354.167 232.333,353.833 234,353.5C 236,354.167 238,354.833 240,355.5C 241.147,354.542 242.147,354.875 243,356.5C 246.231,355.687 249.231,355.354 252,355.5C 255.075,356.249 258.075,357.249 261,358.5C 263.333,358.167 265.667,357.833 268,357.5C 269.333,358.167 270.667,358.833 272,359.5C 276.229,360.097 280.229,360.097 284,359.5C 290.826,362.031 296.826,362.697 302,361.5C 305.075,362.249 308.075,363.249 311,364.5C 314,364.167 317,363.833 320,363.5C 321.555,365.146 323.221,365.479 325,364.5C 325.464,365.094 325.631,365.761 325.5,366.5C 300.489,382.254 273.156,389.587 243.5,388.5C 217.128,388.042 193.128,380.375 171.5,365.5C 162.229,359.344 153.896,352.01 146.5,343.5 Z"/></g>
<g><path style="opacity:1" fill="#aed8e9" d="M 171.5,365.5 C 193.128,380.375 217.128,388.042 243.5,388.5C 245.969,389.317 248.635,389.817 251.5,390C 251.619,391.145 251.952,392.312 252.5,393.5C 221.605,395.78 193.605,388.113 168.5,370.5C 169.627,369.878 170.627,369.045 171.5,368C 170.402,367.23 170.402,366.397 171.5,365.5 Z"/></g>
<g><path style="opacity:1" fill="#9bc2ee" d="M 329.5,364.5 C 306.925,381.811 281.258,391.477 252.5,393.5C 251.952,392.312 251.619,391.145 251.5,390C 248.635,389.817 245.969,389.317 243.5,388.5C 273.156,389.587 300.489,382.254 325.5,366.5C 326.605,365.4 327.938,364.733 329.5,364.5 Z"/></g>
<g><path style="opacity:1" fill="#aed8eb" d="M 190.5,389.5 C 206.163,395.945 222.497,399.278 239.5,399.5C 242.977,400.323 246.644,400.823 250.5,401C 251.061,402.566 250.394,403.899 248.5,405C 248.833,405.333 249.167,405.667 249.5,406C 244.845,406.499 240.179,406.666 235.5,406.5C 218.716,405.149 202.716,401.149 187.5,394.5C 190.773,393.938 191.773,392.271 190.5,389.5 Z"/></g>
<g><path style="opacity:1" fill="#a4c8f2" d="M 312.5,383.5 C 313.552,383.351 314.552,383.517 315.5,384C 315.5,385.333 315.5,386.667 315.5,388C 312.882,389.361 312.215,391.194 313.5,393.5C 288.495,404.572 262.495,408.905 235.5,406.5C 240.179,406.666 244.845,406.499 249.5,406C 249.167,405.667 248.833,405.333 248.5,405C 250.394,403.899 251.061,402.566 250.5,401C 246.644,400.823 242.977,400.323 239.5,399.5C 265.125,400.01 289.458,394.677 312.5,383.5 Z"/></g>
</svg>
